<svg data-animal="cat" viewBox="0 0 1024 1024" version="1.1" xmlns="http://www.w3.org/2000/svg" width="100%" height="100%">


<path d="M0,0 L9,1 L35,12 L61,25 L87,41 L105,54 L119,65 L134,78 L146,89 L151,94 L158,93 L191,84 L212,80 L236,77 L251,76 L301,76 L324,78 L353,83 L370,87 L387,92 L394,95 L398,94 L403,88 L411,81 L422,71 L436,60 L449,50 L470,36 L485,27 L512,13 L534,3 L542,0 L548,0 L553,4 L555,8 L560,34 L564,67 L564,124 L562,150 L556,185 L550,207 L551,213 L557,223 L565,239 L573,259 L579,281 L582,300 L582,343 L578,368 L572,388 L564,407 L564,409 L580,414 L596,419 L612,424 L628,429 L643,434 L647,439 L647,445 L643,450 L634,450 L605,441 L591,436 L570,430 L558,426 L554,427 L545,442 L544,446 L572,459 L602,473 L622,482 L627,486 L628,488 L628,494 L625,498 L622,499 L615,499 L582,484 L548,468 L533,461 L529,462 L521,470 L517,475 L509,482 L498,492 L478,507 L457,520 L435,532 L407,544 L375,555 L358,559 L338,563 L310,567 L295,568 L253,568 L222,565 L198,561 L174,555 L152,548 L131,540 L107,529 L84,516 L65,503 L52,493 L37,480 L24,467 L19,461 L10,464 L-16,476 L-55,494 L-70,500 L-76,499 L-80,494 L-80,487 L-75,482 L-46,469 L-18,456 L4,446 L6,446 L-3,432 L-6,427 L-6,425 L-24,431 L-45,437 L-69,445 L-87,450 L-94,450 L-99,445 L-99,438 L-95,434 L-62,423 L-36,415 L-23,411 L-15,409 L-22,393 L-27,379 L-33,352 L-34,341 L-34,301 L-30,277 L-24,257 L-18,242 L-9,223 L-2,212 L-3,203 L-7,188 L-12,161 L-15,141 L-16,129 L-16,67 L-12,35 L-6,6 L-1,1 Z M250,98 L214,102 L189,107 L162,115 L141,123 L112,137 L98,145 L83,155 L67,167 L54,179 L38,195 L29,206 L17,223 L8,239 L-1,258 L-7,276 L-10,288 L-12,301 L-12,338 L-9,359 L-5,374 L5,401 L9,402 L37,393 L44,393 L49,397 L49,404 L45,408 L16,417 L17,422 L25,433 L27,436 L33,434 L50,426 L57,427 L61,431 L61,438 L56,442 L40,449 L42,453 L58,469 L69,478 L82,488 L99,499 L117,509 L140,520 L168,530 L193,537 L219,542 L234,544 L247,545 L301,545 L330,542 L353,537 L369,533 L405,521 L429,510 L451,498 L463,490 L478,479 L491,468 L504,456 L508,451 L508,449 L489,440 L487,437 L487,430 L491,426 L498,426 L518,435 L522,435 L533,419 L533,417 L509,410 L500,406 L499,404 L499,397 L503,393 L511,393 L522,397 L535,401 L542,402 L548,388 L555,368 L558,353 L560,337 L560,303 L557,285 L552,266 L546,250 L538,234 L529,219 L517,203 L507,192 L500,184 L485,170 L468,157 L450,145 L425,131 L397,119 L366,109 L346,104 L321,100 L299,98 Z " fill="#191818" transform="translate(238,213)"/>

<path d="M0,0 L21,0 L29,2 L45,10 L55,19 L62,27 L68,40 L70,47 L70,68 L68,79 L61,93 L53,103 L39,113 L27,118 L21,119 L-2,119 L-16,114 L-27,107 L-34,101 L-41,91 L-45,83 L-49,69 L-49,50 L-46,39 L-39,25 L-29,14 L-15,5 Z " fill="#181717" transform="translate(668,448)"/>
<path d="M0,0 L20,0 L28,2 L40,7 L50,14 L58,22 L66,35 L70,47 L70,70 L68,78 L63,90 L56,100 L46,109 L32,116 L20,119 L0,119 L-14,115 L-27,107 L-37,97 L-45,83 L-49,68 L-49,49 L-45,36 L-39,25 L-30,15 L-17,6 L-4,1 Z " fill="#181617" transform="translate(335,448)"/>
<path d="M0,0 L9,3 L34,15 L51,25 L75,41 L91,53 L104,64 L114,73 L122,80 L120,82 L104,89 L83,100 L64,112 L50,122 L33,136 L9,160 L4,166 L2,164 L-2,148 L-5,128 L-7,115 L-8,103 L-8,47 L-5,21 L-1,1 Z " fill="#D46B43" transform="translate(249,236)"/>
<path d="M0,0 L2,0 L7,27 L9,47 L9,101 L5,136 L0,160 L-2,166 L-7,161 L-21,146 L-37,131 L-50,121 L-64,111 L-84,99 L-106,87 L-119,82 L-119,78 L-106,66 L-92,55 L-78,44 L-51,26 L-30,14 L-3,1 Z " fill="#D26D45" transform="translate(774,236)"/>
<path d="M0,0 L67,0 L72,3 L75,7 L75,13 L71,19 L52,38 L47,44 L44,46 L44,71 L51,85 L59,92 L67,96 L73,98 L86,98 L99,94 L107,88 L112,82 L118,70 L122,67 L129,68 L133,73 L132,81 L128,91 L119,102 L109,109 L95,115 L88,116 L73,116 L61,113 L49,107 L39,98 L35,92 L30,97 L22,105 L10,112 L-4,116 L-20,116 L-32,113 L-42,108 L-51,101 L-58,93 L-64,80 L-64,72 L-59,67 L-51,68 L-47,73 L-41,85 L-32,93 L-23,97 L-18,98 L-5,98 L8,93 L16,87 L22,77 L25,69 L26,47 L23,46 L16,38 L6,28 L-1,20 L-5,15 L-6,13 L-6,6 L-1,1 Z " fill="#1B1A1B" transform="translate(478,567)"/>













<path d="M0,0 L11,3 L25,7 L23,12 L14,25 L8,24 L-10,16 L-15,15 L-11,13 L-1,2 Z " fill="#DCDCDC" transform="translate(746,623)"/>
<path d="M0,0 L6,2 L1,6 L-3,25 L-5,44 L-6,67 L-6,86 L-5,111 L-4,113 L-1,139 L2,152 L3,161 L6,160 L14,150 L18,151 L9,160 L4,166 L2,164 L-2,148 L-5,128 L-7,115 L-8,103 L-8,47 L-5,21 L-1,1 Z " fill="#B76C4E" transform="translate(249,236)"/>
<path d="M0,0 L2,1 L0,13 L-3,39 L-3,95 L-1,117 L2,133 L4,143 L3,147 L0,138 L-4,115 L-6,95 L-6,36 L-5,33 L-2,7 Z " fill="#37180B" transform="translate(245,244)"/>
<path d="M0,0 L2,3 L4,12 L6,33 L6,89 L3,105 L2,105 L3,86 L3,32 L0,6 Z " fill="#331609" transform="translate(779,251)"/>
<path d="M0,0 L4,1 L-18,16 L-30,25 L-46,38 L-60,50 L-62,54 L-49,59 L-53,60 L-64,56 L-64,50 L-62,47 L-59,46 L-58,44 L-56,44 L-56,42 L-48,36 L-41,30 L-39,30 L-39,28 L-36,28 L-34,24 L-29,20 L-26,20 L-26,18 L-22,16 L-21,14 L-16,11 L-12,8 L-9,8 L-9,6 L-4,5 L-3,2 L0,2 Z " fill="#331C06" transform="translate(717,263)"/>
<path d="M0,0 L1,2 L0,4 L-9,9 L-12,13 L-19,17 L-26,23 L-28,23 L-28,26 L-31,27 L-33,30 L-36,31 L-42,38 L-45,40 L-45,42 L-40,42 L-40,44 L-34,46 L-20,53 L-16,55 L-20,56 L-37,47 L-49,42 L-47,38 L-35,27 L-21,16 L-7,5 Z " fill="#D99D52" transform="translate(703,275)"/>
<path d="M0,0 L5,2 L13,6 L20,10 L20,12 L23,12 L23,14 L26,14 L30,18 L43,27 L48,32 L59,41 L73,54 L72,56 L59,44 L48,35 L33,23 L6,5 L0,1 Z " fill="#311806" transform="translate(297,259)"/>
<path d="M0,0 L4,1 L-8,4 L-9,5 L-23,8 L-31,11 L-28,20 L-20,37 L-20,42 L-22,40 L-34,13 L-38,9 L-16,3 Z " fill="#D79B4E" transform="translate(447,316)"/>

<path d="M0,0 L3,1 L-1,5 L-8,9 L-12,11 L-14,15 L-18,19 L-23,22 L-30,30 L-37,37 L-42,42 L-46,47 L-50,48 L-44,40 L-18,14 L-4,3 Z " fill="#2D140A" transform="translate(303,354)"/>
<path d="M0,0 L4,1 L-13,11 L-32,24 L-48,37 L-54,41 L-52,37 L-47,32 L-41,28 L-40,26 L-37,26 L-37,24 L-34,24 L-34,22 L-32,22 L-32,20 L-26,18 L-26,16 L-22,14 L-21,12 L-15,11 L-15,9 L-12,9 L-11,6 L-1,1 Z " fill="#B96D4F" transform="translate(335,331)"/>
<path d="M0,0 L21,3 L37,7 L37,8 L30,8 L23,6 L14,5 L13,4 L3,4 L1,6 L-2,22 L-6,36 L-7,32 L-2,7 Z " fill="#DEA25A" transform="translate(563,314)"/>




<path d="M0,0 L5,2 L18,13 L34,28 L45,40 L48,45 L44,43 L40,38 L38,37 L38,34 L34,32 L34,30 L32,30 L28,25 L20,18 L10,9 L0,1 Z " fill="#36170B" transform="translate(723,357)"/>
<path d="M0,0 L6,0 L16,4 L23,7 L23,9 L34,12 L34,14 L37,14 L37,16 L41,17 L49,22 L50,24 L44,22 L28,13 L11,5 L2,2 L0,5 Z " fill="#2C1505" transform="translate(247,235)"/>
<path d="M0,0 L11,0 L22,2 L23,3 L31,4 L31,6 L40,5 L41,8 L47,8 L47,10 L50,10 L50,12 L34,8 L9,3 L0,1 Z " fill="#341D07" transform="translate(563,313)"/>

<path d="M0,0 L1,0 L0,16 L-5,44 L-8,53 L-12,50 L-12,48 L-9,48 L-6,36 L-4,26 L-3,16 L-2,14 L-1,1 Z " fill="#B66E4F" transform="translate(780,349)"/>
<path d="M0,0 L0,3 L-17,20 L-25,27 L-35,37 L-41,44 L-41,41 L-29,28 L-8,7 Z " fill="#D37137" transform="translate(758,247)"/>
<path d="M0,0 L2,0 L1,3 L-4,5 L-7,8 L-17,12 L-25,17 L-27,17 L-27,19 L-33,22 L-40,27 L-43,26 L-33,19 L-20,11 L-2,1 Z " fill="#33170A" transform="translate(349,326)"/>

<path d="M0,0 L8,6 L12,11 L-6,19 L-18,25 L-21,25 L-21,23 L-17,23 L-17,21 L-13,21 L-13,19 L-2,14 L6,10 L4,6 L0,2 Z " fill="#D49657" transform="translate(359,306)"/>
<path d="M0,0 L5,2 L23,12 L44,26 L47,29 L43,28 L38,25 L33,21 L24,16 L13,9 L0,2 Z " fill="#311507" transform="translate(676,327)"/>
<path d="M0,0 L6,1 L16,10 L25,16 L25,18 L29,20 L36,27 L38,28 L37,30 L29,23 L17,13 L2,2 Z " fill="#B36C4F" transform="translate(711,347)"/>
<path d="M0,0 L11,0 L11,1 L-14,6 L-27,9 L-28,7 L-20,6 L-20,4 L-11,3 Z " fill="#321C04" transform="translate(441,315)"/>

</svg>