<svg data-animal="fox" viewBox="0 0 1024 1024" version="1.1" xmlns="http://www.w3.org/2000/svg" width="100%" height="100%">


<path d="M0,0 L8,1 L13,6 L20,21 L31,51 L39,78 L45,103 L50,135 L51,147 L51,196 L49,216 L45,240 L43,249 L44,256 L49,283 L50,292 L50,324 L49,342 L54,346 L56,349 L56,358 L43,377 L29,396 L17,409 L10,417 L-7,434 L-18,443 L-29,452 L-46,464 L-65,476 L-86,487 L-113,498 L-133,505 L-159,511 L-176,514 L-199,516 L-238,516 L-263,513 L-289,508 L-316,500 L-341,490 L-358,482 L-379,470 L-395,459 L-411,447 L-426,434 L-439,422 L-447,414 L-454,406 L-463,396 L-476,379 L-488,361 L-490,356 L-490,350 L-486,344 L-482,343 L-484,321 L-484,294 L-480,267 L-477,253 L-478,243 L-482,222 L-484,209 L-485,194 L-485,147 L-483,128 L-479,103 L-473,78 L-466,54 L-456,27 L-447,7 L-442,1 L-433,1 L-417,9 L-397,20 L-378,32 L-362,44 L-349,54 L-335,66 L-310,91 L-305,97 L-297,95 L-274,89 L-247,85 L-235,84 L-198,84 L-171,87 L-143,93 L-131,97 L-127,96 L-115,82 L-97,64 L-86,55 L-70,42 L-54,31 L-35,19 L-13,7 Z M-432,27 L-443,55 L-450,77 L-454,94 L-458,111 L-462,137 L-463,147 L-463,195 L-460,221 L-456,243 L-455,247 L-455,254 L-460,278 L-462,293 L-462,322 L-460,346 L-460,355 L-465,356 L-463,360 L-455,371 L-442,387 L-430,400 L-411,419 L-400,428 L-383,441 L-363,454 L-341,466 L-318,476 L-307,480 L-290,485 L-269,490 L-242,494 L-194,494 L-167,490 L-139,484 L-109,473 L-93,466 L-71,454 L-55,444 L-38,431 L-28,423 L-18,414 L-11,408 L-4,400 L3,393 L12,382 L26,364 L30,358 L30,356 L26,354 L26,341 L28,326 L28,295 L24,269 L21,255 L21,246 L25,229 L28,211 L29,200 L29,149 L26,123 L20,92 L11,60 L1,33 L-2,27 L-7,28 L-24,37 L-41,48 L-55,58 L-66,67 L-79,78 L-89,87 L-108,106 L-118,119 L-120,120 L-130,120 L-148,114 L-171,109 L-197,106 L-238,106 L-262,109 L-289,115 L-307,121 L-314,120 L-323,110 L-330,102 L-339,92 L-354,78 L-365,69 L-379,58 L-397,45 L-417,33 L-429,27 Z " fill="#191818" transform="translate(729,252)"/>

<path d="M0,0 L20,0 L34,4 L45,10 L56,20 L65,34 L68,42 L69,48 L69,69 L64,84 L57,95 L47,105 L35,112 L27,115 L21,116 L-1,116 L-15,111 L-26,104 L-36,94 L-42,84 L-45,77 L-47,68 L-47,49 L-44,37 L-37,24 L-29,15 L-16,6 L-4,1 Z " fill="#181717" transform="translate(368,482)"/>
<path d="M0,0 L18,0 L27,2 L39,7 L51,16 L60,27 L66,40 L68,47 L68,66 L66,75 L61,87 L53,98 L44,106 L30,113 L18,116 L-2,116 L-16,111 L-27,104 L-37,94 L-44,82 L-48,69 L-48,49 L-44,35 L-38,24 L-30,15 L-20,8 L-10,3 Z " fill="#181616" transform="translate(635,482)"/>


<path d="M0,0 L21,0 L37,4 L45,9 L48,13 L48,23 L43,33 L35,42 L21,51 L15,53 L6,53 L-3,49 L-12,43 L-20,35 L-25,27 L-26,24 L-26,13 L-20,6 L-10,2 Z " fill="#181819" transform="translate(501,629)"/>


<path d="M0,0 L3,1 L-8,8 L-21,18 L-34,29 L-45,38 L-68,61 L-79,75 L-81,76 L-91,76 L-109,70 L-132,65 L-158,62 L-199,62 L-223,65 L-250,71 L-261,74 L-261,72 L-251,69 L-247,69 L-247,67 L-230,64 L-224,64 L-224,62 L-212,60 L-194,59 L-162,59 L-143,60 L-131,63 L-118,65 L-97,71 L-92,73 L-81,74 L-81,72 L-79,72 L-79,70 L-75,66 L-74,64 L-72,64 L-72,60 L-67,57 L-65,53 L-63,53 L-63,51 L-61,51 L-61,49 L-56,45 L-55,43 L-53,43 L-52,40 L-48,38 L-47,36 L-45,36 L-45,34 L-40,32 L-38,28 L-35,25 L-30,22 L-29,20 L-26,20 L-26,18 L-21,15 L-19,12 L-13,10 L-12,7 L-9,6 L-6,2 Z " fill="#371505" transform="translate(690,297)"/>


<path d="M0,0 L2,2 L5,15 L6,22 L7,31 L7,43 L5,49 L4,58 L3,60 L2,74 L1,76 L1,120 L3,135 L3,138 L16,136 L51,136 L71,139 L71,140 L1,140 L-2,107 L-2,78 L2,52 L5,39 L5,32 L1,13 Z " fill="#C86D39" transform="translate(269,467)"/>
<path d="M0,0 L2,0 L7,13 L11,23 L14,30 L19,49 L21,51 L23,63 L24,64 L26,76 L28,82 L31,105 L32,109 L33,128 L34,163 L33,167 L32,181 L30,183 L30,122 L27,96 L21,65 L12,33 L2,6 Z " fill="#341404" transform="translate(727,279)"/>
<path d="M0,0 L3,4 L6,16 L6,37 L1,52 L-6,63 L-16,73 L-28,80 L-36,83 L-42,84 L-64,84 L-78,79 L-89,72 L-96,65 L-93,65 L-84,73 L-73,78 L-69,79 L-69,81 L-60,81 L-55,82 L-43,82 L-29,78 L-20,73 L-19,71 L-14,68 L-9,63 L-6,57 L-3,54 L1,46 L3,38 L3,14 L0,5 Z " fill="#3B1505" transform="translate(431,514)"/>
<path d="M0,0 L1,3 L-6,25 L-10,42 L-14,59 L-18,85 L-19,95 L-19,151 L-21,148 L-22,139 L-22,104 L-21,83 L-20,81 L-17,58 L-14,46 L-12,37 L-8,23 L-5,11 Z " fill="#351304" transform="translate(286,304)"/>
<path d="M0,0 L7,6 L15,16 L19,19 L27,18 L46,12 L74,6 L93,4 L134,4 L153,6 L153,7 L141,7 L133,6 L100,6 L68,10 L49,14 L40,17 L26,21 L18,21 L14,19 L9,13 L9,11 L7,11 L0,2 Z " fill="#CA6E37" transform="translate(398,354)"/>
<path d="M0,0 L2,0 L0,16 L-1,26 L-1,70 L2,96 L4,106 L3,110 L1,104 L-2,89 L-4,77 L-4,25 L-2,7 Z " fill="#D7763E" transform="translate(291,341)"/>
<path d="M0,0 L2,0 L2,22 L-9,22 L-16,21 L-50,21 L-73,23 L-81,23 L-80,21 L-76,20 L-59,19 L-53,18 L-3,18 L-1,12 Z " fill="#D8773C" transform="translate(753,585)"/>
<path d="M0,0 L2,0 L1,4 L-5,8 L-21,24 L-24,30 L-29,35 L-31,35 L-33,39 L-37,43 L-49,43 L-49,41 L-58,39 L-69,36 L-84,33 L-96,30 L-96,29 L-89,29 L-66,34 L-48,40 L-38,40 L-33,35 L-22,22 Z " fill="#CF6E38" transform="translate(647,332)"/>
<path d="M0,0 L1,4 L-4,18 L-4,42 L-1,49 L1,58 L3,58 L5,61 L5,64 L7,64 L7,66 L9,66 L9,68 L11,68 L15,73 L25,78 L25,80 L34,82 L34,84 L42,84 L39,86 L32,85 L18,78 L6,67 L-1,57 L-5,47 L-7,40 L-7,20 L-3,6 Z " fill="#3A1405" transform="translate(594,511)"/>
<path d="M0,0 L1,0 L4,19 L7,34 L9,49 L9,80 L8,87 L7,87 L6,53 L5,45 L5,29 L3,29 L0,12 L-1,10 L-1,2 Z " fill="#C36B36" transform="translate(748,498)"/>

<path d="M0,0 L23,0 L32,2 L40,7 L38,8 L26,3 L19,2 L1,2 L-14,7 L-25,14 L-32,20 L-39,30 L-42,36 L-43,36 L-43,31 L-39,24 L-37,24 L-36,20 L-31,16 L-30,14 L-27,14 L-27,11 L-19,6 L-8,2 Z " fill="#CE7039" transform="translate(634,481)"/>
<path d="M0,0 L21,0 L37,4 L45,9 L48,13 L48,21 L46,18 L44,10 L40,8 L33,5 L23,3 L-2,3 L-18,8 L-22,11 L-25,20 L-26,20 L-26,13 L-20,6 L-10,2 Z " fill="#381505" transform="translate(501,629)"/>
<path d="M0,0 L5,1 L24,11 L20,12 L8,5 L1,4 L-4,18 L-7,26 L-8,29 L-10,29 L-10,35 L-12,35 L-12,40 L-15,49 L-17,54 L-18,63 L-19,65 L-21,65 L-20,57 L-10,25 Z " fill="#C66835" transform="translate(297,279)"/>
<path d="M0,0 L1,3 L14,1 L49,1 L69,4 L69,5 L-1,5 Z " fill="#DB7D46" transform="translate(271,602)"/>
<path d="M0,0 L2,0 L0,9 L-1,14 L-1,34 L4,49 L11,60 L19,68 L30,75 L30,76 L25,76 L19,71 L16,70 L13,65 L8,60 L4,54 L4,52 L2,52 L-1,43 L-2,35 L-4,35 L-4,13 Z " fill="#CD6E38" transform="translate(589,517)"/>
<path d="M0,0 L3,4 L8,14 L17,24 L26,31 L40,37 L44,38 L70,38 L68,40 L61,41 L47,41 L40,40 L34,37 L28,35 L24,33 L24,31 L19,29 L15,26 L15,24 L13,24 L6,15 L6,13 L4,13 L0,4 Z " fill="#C96A36" transform="translate(323,559)"/>
<path d="M0,0 L1,0 L1,12 L-1,25 L-4,35 L-4,47 L-3,48 L0,67 L1,68 L1,84 L0,84 L-4,58 L-7,44 L-7,35 L-3,18 Z " fill="#3A1605" transform="translate(756,463)"/>
<path d="M0,0 L1,0 L0,15 L0,44 L1,67 L-1,66 L-2,52 L-3,48 L-3,13 Z " fill="#311205" transform="translate(268,530)"/>
<path d="M0,0 L4,2 L13,13 L17,21 L20,29 L21,32 L21,55 L18,63 L16,63 L18,52 L18,33 L14,21 L8,10 L0,1 Z " fill="#CE6F39" transform="translate(684,496)"/>
<path d="M0,0 L42,0 L54,3 L67,5 L80,9 L80,11 L62,7 L46,4 L27,2 L0,1 Z " fill="#441B06" transform="translate(505,357)"/>
<path d="M0,0 L2,2 L2,35 L0,48 L0,60 L-3,59 L-3,46 L-1,31 Z " fill="#2F1306" transform="translate(757,547)"/>
<path d="M0,0 L1,0 L2,9 L2,60 L0,76 L-1,76 L-1,50 L0,45 Z " fill="#C66A34" transform="translate(756,392)"/>
<path d="M0,0 L4,1 L15,30 L21,50 L23,57 L23,61 L21,61 L18,47 L14,38 L11,27 L11,23 L9,23 L6,14 L3,6 L3,2 L-2,2 Z " fill="#C26732" transform="translate(724,279)"/>
<path d="M0,0 L7,1 L7,3 L13,5 L24,10 L24,12 L26,12 L26,14 L32,16 L35,18 L35,20 L30,18 L15,9 L0,2 L-3,12 L-9,27 L-10,24 L-7,14 L-3,6 L-2,1 Z " fill="#351304" transform="translate(297,277)"/>
<path d="M0,0 L19,0 L35,4 L45,13 L45,18 L50,18 L45,22 L44,22 L42,13 L37,9 L27,5 L17,3 L-5,2 L-5,1 Z " fill="#CC713C" transform="translate(505,627)"/>
<path d="M0,0 L20,0 L34,4 L45,10 L56,20 L63,30 L63,32 L60,31 L55,23 L53,19 L50,18 L50,16 L47,16 L44,13 L44,11 L39,10 L32,6 L27,4 L19,2 L0,1 Z " fill="#381405" transform="translate(368,482)"/>
<path d="M0,0 L2,0 L1,3 L-4,8 L-8,10 L-10,14 L-16,19 L-21,25 L-24,28 L-29,34 L-32,37 L-34,37 L-32,33 L-20,19 L-7,6 Z " fill="#DB7A40" transform="translate(337,419)"/>
<path d="M0,0 L2,1 L-11,19 L-21,36 L-24,43 L-25,39 L-22,31 L-16,21 L-14,21 L-13,17 L-10,12 L-8,12 L-8,9 L-6,9 L-5,5 L-4,3 L-2,3 L-2,1 Z " fill="#D97840" transform="translate(679,334)"/>
<path d="M0,0 L2,0 L-1,9 L-4,16 L1,18 L15,27 L28,37 L24,38 L19,33 L11,28 L11,26 L6,24 L-2,20 L-2,18 L-5,17 L-5,10 L-3,5 L-1,5 Z " fill="#D67942" transform="translate(652,377)"/>
<path d="M0,0 L8,1 L4,3 L-6,5 L-11,8 L-14,8 L-14,10 L-20,13 L-27,21 L-32,23 L-26,15 L-14,6 L-3,1 Z " fill="#361607" transform="translate(364,483)"/>
<path d="M0,0 L1,0 L2,35 L3,41 L3,68 L2,68 L0,48 Z " fill="#CA6A34" transform="translate(266,399)"/>
<path d="M0,0 L1,0 L1,19 L0,20 L-1,31 L-3,44 L-6,51 L-11,50 L-13,48 L-12,44 L-9,48 L-9,50 L-7,50 L-6,40 L-2,19 Z " fill="#D97E4A" transform="translate(734,412)"/>
<path d="M0,0 L1,0 L1,10 L0,11 L0,30 L2,40 L6,50 L7,54 L3,49 L-1,40 L-3,31 L-3,12 Z " fill="#3C1605" transform="translate(324,519)"/>
<path d="M0,0 L18,0 L20,1 L29,2 L38,4 L39,5 L48,6 L51,9 L41,8 L9,2 L0,1 Z " fill="#D77D4B" transform="translate(341,607)"/>
<path d="M0,0 L2,4 L8,35 L9,41 L9,49 L7,46 L6,44 L5,33 L4,31 L3,22 L2,21 L2,11 L0,11 Z " fill="#C46730" transform="translate(747,340)"/>
<path d="M0,0 L2,2 L5,9 L8,30 L10,40 L10,54 L9,54 L5,27 L0,3 Z " fill="#D4743E" transform="translate(725,312)"/>

<path d="M0,0 L2,0 L0,16 L-1,26 L-2,63 L-3,63 L-3,19 L-2,7 Z " fill="#D17A49" transform="translate(291,341)"/>
<path d="M0,0 L6,0 L6,2 L8,2 L8,4 L12,6 L25,18 L33,26 L34,31 L29,26 L16,12 L5,3 L2,2 L-1,11 L-2,7 Z " fill="#D47742" transform="translate(303,295)"/>

<path d="M0,0 L8,1 L17,6 L25,9 L25,11 L28,11 L29,7 L30,3 L33,3 L33,1 L36,2 L31,8 L30,16 L22,11 L0,1 Z " fill="#CA7544" transform="translate(445,634)"/>
<path d="M0,0 L10,4 L22,13 L31,24 L36,34 L35,37 L33,34 L27,23 L23,18 L23,16 L19,14 L19,12 L14,10 L9,7 L9,5 L0,2 Z " fill="#3A1405" transform="translate(664,485)"/>

<path d="M0,0 L1,0 L0,14 L-2,20 L-5,42 L-7,47 L-8,43 L-4,17 Z " fill="#C26532" transform="translate(275,346)"/>

<path d="M0,0 L2,2 L1,9 L-2,9 L-2,11 L-4,11 L-4,13 L-9,16 L-12,16 L-12,18 L-21,25 L-27,26 L-22,21 L0,6 Z " fill="#DA7A42" transform="translate(375,386)"/>
<path d="M0,0 L15,0 L26,3 L27,6 L14,3 L-6,3 L-16,5 L-14,4 L-14,2 L-11,1 Z " fill="#CA6C34" transform="translate(374,480)"/>
<path d="M0,0 L4,2 L5,5 L8,6 L18,19 L31,20 L28,22 L20,23 L12,16 L4,6 L0,2 Z " fill="#3C1706" transform="translate(397,351)"/>
<path d="M0,0 L4,1 L-6,10 L-20,17 L-26,19 L-31,19 L-30,17 L-18,14 L-14,11 L-11,11 L-11,9 L-4,5 L-2,2 L0,2 Z " fill="#371506" transform="translate(685,578)"/>
<path d="M0,0 L2,0 L1,9 L1,28 L2,37 L0,35 L-2,26 L-2,7 Z " fill="#CF713A" transform="translate(321,522)"/>
<path d="M0,0 L5,2 L18,11 L20,12 L20,14 L24,16 L28,18 L28,20 L32,22 L37,26 L37,28 L33,26 L18,14 L0,1 Z " fill="#3E1504" transform="translate(332,297)"/>

<path d="M0,0 L6,1 L19,11 L28,21 L32,29 L31,32 L24,20 L16,11 L6,4 L0,1 Z " fill="#CA703D" transform="translate(402,486)"/>
<path d="M0,0 L4,1 L-12,9 L-26,17 L-30,19 L-30,17 L-28,17 L-28,15 L-20,10 L-14,7 L-8,5 L-7,2 Z " fill="#381706" transform="translate(723,278)"/>
<path d="M0,0 L5,0 L2,2 L-16,6 L-33,11 L-36,11 L-36,9 L-22,5 L-18,5 L-18,3 L-11,3 L-11,1 Z " fill="#D57741" transform="translate(645,612)"/>

<path d="M0,0 L2,3 L3,7 L3,26 L1,35 L-1,38 L0,30 Z " fill="#3D1706" transform="translate(700,522)"/>
<path d="M0,0 L9,1 L18,3 L26,6 L29,7 L29,9 L34,10 L33,12 L0,1 Z " fill="#D77E4B" transform="translate(405,620)"/>
</svg>