<svg data-animal="owl" viewBox="0 0 1024 1024" version="1.1" xmlns="http://www.w3.org/2000/svg" width="100%" height="100%">

<path d="M0,0 L7,0 L13,4 L24,17 L33,28 L46,43 L55,53 L64,64 L71,71 L78,79 L90,92 L99,89 L123,80 L149,72 L176,66 L203,62 L228,60 L271,60 L302,63 L338,69 L358,74 L393,86 L410,93 L412,89 L422,79 L429,71 L440,59 L449,48 L460,36 L469,25 L478,15 L487,4 L492,0 L499,0 L504,3 L508,8 L514,28 L516,41 L516,65 L514,79 L511,91 L508,100 L520,97 L541,89 L549,85 L558,85 L564,90 L565,92 L565,106 L562,122 L557,137 L550,149 L541,159 L532,166 L516,174 L520,181 L532,199 L542,217 L554,242 L565,273 L572,299 L577,325 L581,349 L583,367 L583,382 L578,405 L574,419 L565,444 L556,464 L544,487 L532,506 L516,527 L504,541 L482,563 L471,572 L456,584 L433,599 L415,609 L392,620 L368,629 L357,633 L328,640 L306,644 L276,647 L226,647 L200,645 L170,640 L143,633 L114,623 L90,612 L71,602 L52,590 L33,576 L22,567 L10,556 L-8,538 L-17,527 L-29,512 L-42,492 L-51,476 L-59,460 L-68,439 L-73,425 L-79,405 L-84,380 L-83,360 L-78,325 L-73,301 L-66,275 L-58,251 L-48,228 L-37,206 L-23,184 L-17,176 L-16,173 L-22,172 L-36,164 L-47,154 L-54,144 L-60,131 L-63,122 L-65,111 L-65,92 L-60,86 L-58,85 L-50,85 L-30,94 L-10,100 L-8,100 L-13,87 L-16,71 L-16,38 L-13,22 L-8,7 L-4,2 Z " fill="#070504" transform="translate(262,196)"/>



<path d="M0,0 L8,6 L20,15 L34,23 L48,30 L64,36 L85,41 L96,43 L108,44 L132,44 L156,41 L194,32 L214,24 L228,16 L231,20 L249,55 L267,89 L273,99 L276,101 L285,101 L290,97 L305,69 L321,38 L332,18 L334,14 L340,16 L356,24 L373,30 L398,38 L425,43 L461,43 L477,41 L493,37 L511,31 L532,21 L544,13 L557,3 L560,1 L558,6 L552,17 L540,35 L526,53 L514,66 L507,74 L499,81 L488,91 L471,104 L456,114 L435,126 L414,136 L389,145 L368,151 L352,155 L319,160 L302,161 L253,161 L227,158 L204,154 L184,149 L157,140 L132,129 L110,117 L89,103 L76,93 L62,81 L38,57 L27,43 L17,29 L5,10 L0,2 Z " fill="#DDA468" transform="translate(231,659)"/>

<path d="M0,0 L33,0 L57,2 L80,5 L100,9 L125,16 L146,23 L155,27 L153,31 L141,41 L122,53 L98,63 L83,71 L72,79 L60,90 L49,104 L40,120 L31,144 L24,164 L15,187 L13,184 L3,158 L-6,131 L-12,117 L-21,102 L-29,92 L-42,79 L-52,72 L-66,64 L-93,53 L-109,43 L-123,31 L-125,27 L-111,21 L-86,13 L-66,8 L-37,3 L-17,1 Z " fill="#CA8A4E" transform="translate(497,279)"/>


<path d="M0,0 L21,3 L89,9 L113,13 L135,19 L151,25 L165,33 L179,43 L187,50 L184,50 L163,40 L149,35 L127,31 L94,31 L74,35 L56,41 L35,52 L21,62 L9,73 L1,81 L-8,93 L-16,106 L-25,125 L-31,145 L-33,156 L-34,167 L-34,188 L-30,212 L-23,232 L-15,248 L-8,260 L3,273 L9,280 L17,287 L30,297 L48,307 L65,314 L73,316 L73,317 L65,317 L41,313 L21,307 L3,299 L-11,291 L-27,279 L-36,271 L-43,263 L-52,251 L-59,237 L-66,211 L-68,200 L-68,185 L-65,162 L-59,129 L-51,98 L-44,78 L-35,57 L-22,32 L-12,17 L-2,3 Z " fill="#CC8D52" transform="translate(270,376)"/>
<path d="M0,0 L4,1 L16,18 L27,36 L39,59 L49,83 L54,97 L62,127 L67,154 L70,175 L71,185 L71,202 L67,222 L61,240 L54,253 L41,269 L34,276 L20,287 L6,296 L-13,305 L-31,311 L-50,315 L-58,316 L-77,316 L-74,314 L-60,310 L-44,303 L-28,294 L-15,284 L-5,275 L5,264 L15,250 L26,229 L32,212 L36,190 L36,154 L32,134 L26,117 L18,101 L9,87 L-2,74 L-13,63 L-28,52 L-46,42 L-65,35 L-86,30 L-94,29 L-124,29 L-148,34 L-168,42 L-177,47 L-179,46 L-162,33 L-141,22 L-123,16 L-98,11 L-73,8 L-38,5 L-12,2 Z " fill="#CB8D51" transform="translate(750,376)"/>


<path d="M0,0 L16,0 L29,4 L40,11 L48,19 L56,35 L57,40 L57,56 L53,69 L46,80 L39,87 L29,93 L19,96 L-3,96 L-15,91 L-24,84 L-32,75 L-37,64 L-39,56 L-39,39 L-35,28 L-29,18 L-20,9 L-12,4 Z " fill="#060503" transform="translate(385,503)"/>
<path d="M0,0 L16,0 L24,2 L33,6 L44,14 L50,22 L55,32 L57,41 L57,54 L53,68 L47,77 L40,85 L30,91 L19,95 L14,96 L2,96 L-10,93 L-20,87 L-29,79 L-36,67 L-39,57 L-39,40 L-35,27 L-28,17 L-20,9 L-10,3 Z " fill="#060503" transform="translate(623,500)"/>

<path d="M0,0 L24,0 L35,2 L50,8 L62,15 L72,24 L79,31 L88,45 L93,56 L97,73 L97,93 L95,104 L90,119 L82,133 L73,144 L64,152 L51,160 L39,165 L22,169 L1,169 L-16,165 L-32,157 L-43,149 L-54,138 L-63,124 L-69,110 L-72,94 L-72,74 L-69,60 L-63,45 L-56,34 L-47,24 L-37,15 L-23,7 L-10,2 Z M2,10 L-13,14 L-29,22 L-40,31 L-49,42 L-56,54 L-61,70 L-62,76 L-62,90 L-59,106 L-54,118 L-48,128 L-39,138 L-30,146 L-18,153 L-6,157 L3,159 L20,159 L37,155 L53,147 L62,140 L71,131 L79,118 L84,105 L87,91 L87,74 L83,59 L75,43 L67,33 L56,23 L41,15 L24,10 Z " fill="#0C0804" transform="translate(629,464)"/>


<path d="M0,0 L2,0 L2,2 L-8,7 L-10,9 L0,8 L1,7 L10,6 L12,5 L22,4 L43,4 L54,5 L51,7 L17,7 L-7,12 L-27,20 L-36,25 L-38,24 L-21,11 Z " fill="#B6885E" transform="translate(609,398)"/>
<path d="M0,0 L4,1 L-15,10 L-33,16 L-52,20 L-60,21 L-79,21 L-76,19 L-62,15 L-52,12 L-52,14 L-56,18 L-48,16 L-39,15 L-31,12 L-24,10 L-14,8 L-14,6 L-5,4 L-5,2 Z " fill="#BC8E61" transform="translate(752,671)"/>

<path d="M0,0 L4,2 L11,9 L20,23 L25,34 L28,47 L28,64 L25,78 L20,91 L19,87 L21,80 L23,80 L23,74 L24,73 L25,62 L25,48 L24,40 L21,33 L18,24 L11,13 L5,6 L0,2 Z " fill="#DCB251" transform="translate(688,491)"/>
<path d="M0,0 L5,2 L21,12 L34,23 L31,23 L10,13 L-4,8 L-8,6 L-1,6 L13,11 L13,9 L11,9 L11,7 L6,5 L0,2 Z " fill="#A97F5A" transform="translate(423,403)"/>
<path d="M0,0 L1,0 L1,6 L-1,16 L-2,17 L-2,40 L0,55 L1,59 L-1,59 L-5,45 L-6,38 L-6,21 L-2,5 Z " fill="#DDB148" transform="translate(308,522)"/>
<path d="M0,0 L2,0 L0,4 L-7,12 L-11,20 L-14,27 L-16,34 L-18,34 L-19,43 L-20,67 L-21,67 L-22,59 L-22,45 L-18,28 L-10,12 L-1,2 Z " fill="#D6AD4F" transform="translate(589,495)"/>
<path d="M0,0 L3,0 L9,7 L15,10 L20,15 L38,28 L43,30 L43,32 L46,32 L46,34 L50,35 L63,42 L63,44 L58,42 L40,32 L24,21 L11,11 L0,2 Z " fill="#C59F76" transform="translate(296,741)"/>
<path d="M0,0 L22,0 L39,5 L49,10 L45,11 L38,7 L26,4 L19,3 L4,3 L-8,4 L-9,2 Z " fill="#DFB44F" transform="translate(631,474)"/>
<path d="M0,0 L2,1 L2,4 L4,4 L7,11 L7,14 L9,14 L13,23 L16,29 L16,32 L18,32 L25,46 L28,53 L26,54 L3,9 L-1,1 Z " fill="#D9A05E" transform="translate(476,654)"/>
<path d="M0,0 L6,1 L16,6 L28,14 L33,17 L38,22 L45,29 L50,34 L53,37 L53,39 L56,39 L57,44 L52,40 L45,32 L36,23 L21,12 L3,2 Z " fill="#B68B61" transform="translate(701,416)"/>
<path d="M0,0 L9,1 L13,5 L22,12 L22,14 L24,14 L24,16 L26,16 L30,25 L30,27 L32,27 L34,35 L34,51 L33,51 L31,33 L23,17 L15,9 L3,2 Z " fill="#D8B050" transform="translate(409,505)"/>
<path d="M0,0 L2,0 L-1,10 L-6,25 L-15,48 L-17,45 L-18,39 L-15,42 L-12,32 L-9,25 L-6,15 L-3,9 Z " fill="#B88B61" transform="translate(527,418)"/>
<path d="M0,0 L3,4 L8,20 L8,47 L6,51 L5,18 L2,11 L0,4 Z " fill="#DFB451" transform="translate(453,518)"/>
<path d="M0,0 L2,0 L0,6 L-18,40 L-20,41 L-22,36 L-18,37 L-18,32 L-15,29 L-11,20 L-9,20 L-7,13 L-6,10 L-4,10 L-4,6 L-2,6 L-2,2 L0,2 Z " fill="#D8A160" transform="translate(531,684)"/>
<path d="M0,0 L6,0 L3,2 L-4,5 L-4,9 L0,11 L11,20 L21,26 L25,28 L25,30 L20,28 L6,19 L-7,8 L-9,4 Z " fill="#B88A5F" transform="translate(381,302)"/>
<path d="M0,0 L2,0 L1,4 L-10,25 L-17,46 L-19,53 L-20,53 L-20,46 L-12,22 L-9,17 L-8,14 L-6,14 L-6,10 L-4,10 L-2,3 L0,3 Z " fill="#BB8C60" transform="translate(257,471)"/>
<path d="M0,0 L1,0 L1,8 L-2,36 L-1,42 L-1,53 L-2,53 L-4,42 L-4,27 L-1,4 Z " fill="#B18459" transform="translate(206,534)"/>

<path d="M0,0 L20,7 L24,9 L16,9 L-8,5 L-12,3 L-8,2 L-1,4 L4,4 L0,2 Z " fill="#A4805C" transform="translate(319,684)"/>
<path d="M0,0 L2,0 L0,6 L-12,30 L-19,43 L-20,40 L-18,34 L-16,34 L-15,29 L-12,23 L-10,23 L-8,15 L-6,15 L-6,11 L-4,11 L-3,6 L-2,3 L0,3 Z " fill="#D9A25F" transform="translate(553,641)"/>
<path d="M0,0 L3,1 L-11,5 L-16,6 L-33,6 L-46,3 L-46,2 L-34,2 L-32,3 L-12,3 Z " fill="#D4AD50" transform="translate(665,617)"/>
<path d="M0,0 L3,4 L9,15 L9,17 L7,17 L1,5 L-4,5 L-11,10 L-24,15 L-28,14 L-10,6 Z " fill="#C8A077" transform="translate(459,675)"/>


<path d="M0,0 L1,0 L4,12 L9,28 L13,35 L19,44 L16,44 L8,31 L3,17 L-1,1 Z " fill="#B88A5F" transform="translate(206,589)"/>
<path d="M0,0 L1,0 L3,15 L7,26 L13,35 L21,42 L20,44 L16,43 L13,38 L6,29 L4,23 L2,23 L0,16 Z " fill="#DEB652" transform="translate(345,548)"/>
<path d="M0,0 L2,2 L1,8 L-2,15 L-10,26 L-18,33 L-19,35 L-24,35 L-19,31 L-11,24 L-4,13 Z " fill="#D9AF4E" transform="translate(441,559)"/>
<path d="M0,0 L18,4 L35,10 L42,13 L38,14 L21,8 L13,5 L-2,2 Z " fill="#B88A60" transform="translate(381,389)"/>
<path d="M0,0 L2,1 L-5,9 L-15,19 L-17,19 L-19,23 L-23,26 L-25,25 Z " fill="#D4C6AA" transform="translate(694,298)"/>
<path d="M0,0 L2,1 L-9,15 L-18,31 L-19,28 L-18,24 L-16,24 L-15,20 L-12,15 L-10,11 L-8,10 L-5,4 L-2,4 Z " fill="#B9895D" transform="translate(555,368)"/>
<path d="M0,0 L2,0 L1,3 L-9,6 L-29,6 L-37,5 L-38,2 L-26,4 L-14,4 L-2,1 Z " fill="#DFB451" transform="translate(651,591)"/>
<path d="M0,0 L4,5 L14,22 L18,30 L20,34 L19,38 L11,22 L5,11 L-1,3 Z " fill="#BA8C61" transform="translate(759,459)"/>
<path d="M0,0 L4,2 L15,11 L27,19 L35,23 L33,25 L18,16 L5,6 Z " fill="#B4885E" transform="translate(238,649)"/>
<path d="M0,0 L5,0 L1,3 L-15,13 L-24,21 L-25,18 L-20,13 L-17,13 L-17,11 L-14,11 L-14,9 L-12,9 L-11,6 L-4,3 L0,2 Z " fill="#B7875B" transform="translate(586,343)"/>
<path d="M0,0 L9,2 L21,7 L19,11 L8,20 L7,17 L11,16 L11,14 L13,14 L13,12 L16,12 L16,10 L18,10 L16,7 L6,4 L0,1 Z " fill="#BB8E63" transform="translate(631,299)"/>
</svg>