<svg data-animal="rabbit" viewBox="0 0 1024 1024" version="1.1" xmlns="http://www.w3.org/2000/svg" width="100%" height="100%">


<path d="M0,0 L12,0 L27,4 L37,11 L44,18 L52,31 L58,47 L62,66 L65,92 L65,135 L64,157 L61,188 L59,201 L59,211 L70,221 L77,229 L87,242 L96,256 L107,277 L114,296 L119,316 L121,331 L121,369 L119,383 L114,406 L106,427 L98,443 L89,458 L79,471 L69,482 L64,487 L54,497 L35,511 L17,521 L0,528 L-21,535 L-41,539 L-54,540 L-207,540 L-233,536 L-259,528 L-279,519 L-298,507 L-311,497 L-323,486 L-333,476 L-346,459 L-356,443 L-364,427 L-372,406 L-376,389 L-379,368 L-379,336 L-376,315 L-371,294 L-363,274 L-355,258 L-346,244 L-335,230 L-324,218 L-316,211 L-317,199 L-321,162 L-323,136 L-323,92 L-320,66 L-315,44 L-308,28 L-301,17 L-293,9 L-277,1 L-255,1 L-243,6 L-234,13 L-226,22 L-217,38 L-211,55 L-206,77 L-203,93 L-200,120 L-198,153 L-198,163 L-59,163 L-59,134 L-57,108 L-53,82 L-49,62 L-43,43 L-35,27 L-28,17 L-20,9 L-4,1 Z M-207,183 L-227,186 L-248,192 L-264,199 L-278,206 L-290,214 L-300,222 L-310,231 L-319,240 L-330,254 L-341,272 L-350,291 L-355,308 L-358,320 L-360,334 L-360,367 L-356,391 L-351,407 L-345,422 L-334,443 L-322,459 L-311,471 L-302,480 L-285,493 L-270,502 L-250,511 L-233,516 L-225,518 L-212,520 L-48,520 L-24,516 L-1,508 L15,500 L27,493 L43,481 L61,463 L74,446 L86,425 L95,403 L100,381 L102,366 L102,332 L99,315 L94,296 L84,273 L73,255 L59,238 L45,224 L28,211 L9,200 L-10,192 L-26,187 L-50,183 Z " fill="#050505" transform="translate(641,218)"/>


<path d="M0,0 L15,0 L23,2 L32,6 L38,10 L44,15 L51,25 L56,38 L56,53 L53,65 L47,76 L41,83 L30,90 L16,95 L1,95 L-8,93 L-21,86 L-29,78 L-35,68 L-38,59 L-39,53 L-39,40 L-35,27 L-28,16 L-19,8 L-5,1 Z " fill="#050504" transform="translate(628,497)"/>
<path d="M0,0 L17,0 L27,3 L36,8 L46,17 L54,31 L56,39 L56,56 L53,66 L48,75 L39,85 L27,92 L17,95 L0,95 L-12,91 L-22,84 L-27,79 L-33,71 L-38,59 L-39,54 L-39,40 L-36,30 L-30,19 L-20,9 L-9,3 Z " fill="#050505" transform="translate(379,497)"/>
<path d="M0,0 L50,0 L56,4 L58,7 L58,17 L51,25 L38,37 L36,38 L36,76 L41,81 L46,84 L58,84 L66,80 L71,70 L74,67 L83,67 L88,71 L88,80 L82,92 L73,100 L61,105 L44,105 L33,101 L26,96 L21,98 L11,103 L5,105 L-10,105 L-21,101 L-30,94 L-34,89 L-38,81 L-38,73 L-33,67 L-25,67 L-19,72 L-15,81 L-9,84 L4,84 L10,81 L14,77 L14,38 L4,29 L-8,18 L-9,15 L-9,8 L-3,1 Z " fill="#050505" transform="translate(487,590)"/>


</svg>