<svg data-animal="wolf" viewBox="0 0 1024 1024" version="1.1" xmlns="http://www.w3.org/2000/svg" width="100%" height="100%">

<path d="M0,0 L6,0 L22,11 L34,20 L45,29 L57,40 L78,61 L87,72 L101,90 L107,100 L129,97 L140,95 L165,93 L229,93 L260,96 L285,100 L292,89 L305,72 L317,58 L328,46 L335,39 L343,32 L357,20 L375,7 L385,0 L391,0 L395,2 L410,27 L421,48 L431,73 L439,98 L444,120 L449,151 L450,163 L450,206 L460,221 L470,239 L481,263 L487,278 L487,286 L483,292 L481,293 L474,293 L481,307 L490,331 L490,339 L487,344 L483,346 L472,346 L472,356 L466,382 L460,399 L450,420 L436,441 L424,455 L410,469 L396,480 L383,489 L369,497 L348,507 L329,514 L317,528 L310,535 L296,546 L281,555 L264,563 L247,569 L225,574 L214,575 L175,575 L153,571 L133,565 L115,557 L99,548 L87,539 L77,530 L70,523 L63,514 L41,506 L20,496 L1,484 L-13,473 L-26,461 L-36,451 L-47,437 L-58,420 L-66,404 L-74,384 L-78,368 L-80,355 L-80,345 L-92,345 L-98,338 L-98,331 L-91,311 L-83,293 L-90,292 L-94,287 L-94,276 L-82,247 L-70,224 L-58,205 L-58,163 L-56,141 L-53,121 L-48,100 L-40,74 L-30,50 L-19,28 L-3,2 Z " fill="#85898D" transform="translate(316,217)"/>

<path d="M0,0 L6,0 L22,11 L34,20 L45,29 L57,40 L78,61 L87,72 L101,90 L107,100 L129,97 L140,95 L165,93 L229,93 L260,96 L285,100 L292,89 L305,72 L317,58 L328,46 L335,39 L343,32 L357,20 L375,7 L385,0 L391,0 L395,2 L410,27 L421,48 L431,73 L439,98 L444,120 L449,151 L450,163 L450,206 L460,221 L470,239 L481,263 L487,278 L487,286 L483,292 L481,293 L474,293 L481,307 L490,331 L490,339 L487,344 L483,346 L472,346 L472,356 L466,382 L460,399 L450,420 L436,441 L424,455 L410,469 L396,480 L383,489 L369,497 L348,507 L329,514 L317,528 L310,535 L296,546 L281,555 L264,563 L247,569 L225,574 L214,575 L175,575 L153,571 L133,565 L115,557 L99,548 L87,539 L77,530 L70,523 L63,514 L41,506 L20,496 L1,484 L-13,473 L-26,461 L-36,451 L-47,437 L-58,420 L-66,404 L-74,384 L-78,368 L-80,355 L-80,345 L-92,345 L-98,338 L-98,331 L-91,311 L-83,293 L-90,292 L-94,287 L-94,276 L-82,247 L-70,224 L-58,205 L-58,163 L-56,141 L-53,121 L-48,100 L-40,74 L-30,50 L-19,28 L-3,2 Z M6,25 L0,35 L-11,56 L-22,83 L-30,110 L-35,136 L-37,157 L-38,211 L-47,224 L-56,239 L-66,258 L-72,273 L-62,274 L-57,279 L-57,286 L-68,306 L-74,321 L-74,325 L-67,326 L-62,332 L-61,351 L-58,367 L-56,375 L-49,394 L-41,410 L-34,421 L-24,434 L-13,446 L-5,454 L9,465 L24,475 L47,487 L66,494 L76,497 L83,508 L93,519 L107,530 L120,538 L137,546 L149,550 L174,555 L181,556 L207,556 L228,553 L246,549 L266,541 L282,532 L295,522 L302,516 L311,505 L317,497 L347,486 L370,474 L387,462 L400,451 L413,438 L426,421 L435,406 L443,388 L448,374 L452,355 L453,332 L458,326 L465,325 L463,317 L455,298 L448,285 L448,279 L452,274 L463,273 L461,267 L452,247 L439,224 L429,210 L429,152 L424,121 L420,104 L413,81 L403,57 L391,33 L386,25 L381,27 L368,37 L355,48 L343,59 L331,71 L322,82 L313,93 L301,110 L295,119 L291,121 L284,121 L272,118 L252,115 L230,113 L163,113 L140,115 L110,120 L106,121 L99,121 L96,120 L94,115 L84,100 L74,87 L61,72 L45,55 L34,45 L20,34 L8,25 Z " fill="#060A0A" transform="translate(316,217)"/>


<path d="M0,0 L14,0 L25,2 L39,9 L49,18 L56,27 L61,39 L62,45 L62,59 L60,69 L55,81 L47,91 L36,99 L28,103 L17,106 L2,106 L-9,104 L-23,97 L-35,86 L-41,76 L-45,64 L-46,58 L-46,48 L-43,35 L-37,23 L-29,14 L-19,7 L-9,2 Z " fill="#040809" transform="translate(643,484)"/>
<path d="M0,0 L18,0 L28,3 L38,8 L48,17 L54,24 L60,36 L62,43 L62,61 L60,69 L55,81 L48,90 L40,97 L28,103 L18,106 L0,106 L-11,103 L-21,98 L-31,90 L-40,77 L-44,67 L-45,60 L-45,43 L-41,31 L-34,20 L-25,11 L-11,3 Z " fill="#040709" transform="translate(364,484)"/>
<path d="M0,0 L38,0 L54,3 L68,9 L74,16 L75,18 L75,31 L69,45 L62,54 L53,63 L40,71 L31,74 L26,74 L27,94 L31,100 L36,104 L40,106 L52,106 L60,102 L66,92 L73,91 L77,94 L77,101 L71,111 L65,116 L56,120 L37,120 L25,114 L20,109 L16,111 L10,116 L0,120 L-18,120 L-27,116 L-35,109 L-39,102 L-39,94 L-36,91 L-30,91 L-26,95 L-23,101 L-18,105 L-15,106 L-2,106 L8,100 L11,96 L12,74 L3,73 L-11,66 L-22,57 L-31,46 L-36,34 L-37,31 L-37,18 L-33,12 L-27,7 L-12,2 Z " fill="#040809" transform="translate(493,615)"/>




</svg>