<svg data-animal="bear" viewBox="0 0 1024 1024" version="1.1" xmlns="http://www.w3.org/2000/svg" width="100%" height="100%">


<path d="M0,0 L18,0 L35,3 L53,9 L69,18 L82,29 L91,39 L101,55 L107,70 L108,77 L121,73 L130,71 L149,68 L161,67 L284,67 L307,70 L331,75 L336,76 L340,63 L344,53 L351,42 L358,33 L366,25 L377,17 L391,9 L404,4 L416,1 L423,0 L441,0 L458,3 L476,9 L490,17 L501,26 L510,35 L520,49 L527,63 L531,75 L534,91 L534,107 L531,126 L524,144 L515,159 L504,171 L493,181 L488,184 L490,189 L499,203 L510,223 L518,242 L526,267 L531,290 L534,312 L534,357 L532,373 L528,396 L523,414 L515,436 L504,460 L491,482 L481,496 L471,509 L460,521 L453,529 L439,542 L422,555 L401,569 L383,579 L366,587 L345,595 L332,599 L315,603 L299,606 L273,608 L169,608 L146,606 L123,602 L98,595 L69,583 L48,572 L29,560 L12,547 L-2,535 L-22,515 L-31,504 L-41,491 L-53,472 L-65,450 L-76,422 L-82,404 L-87,380 L-89,368 L-90,355 L-90,309 L-86,283 L-79,257 L-72,238 L-63,218 L-52,198 L-44,186 L-44,184 L-55,176 L-66,165 L-76,151 L-83,137 L-88,121 L-90,110 L-90,89 L-86,71 L-78,52 L-69,39 L-60,29 L-50,20 L-36,11 L-22,5 L-7,1 Z M162,88 L139,91 L124,94 L100,101 L80,109 L63,117 L42,130 L23,144 L13,153 L5,160 L-9,174 L-20,188 L-30,202 L-43,224 L-52,243 L-60,265 L-65,286 L-68,300 L-70,317 L-70,351 L-68,370 L-63,395 L-57,416 L-49,435 L-41,451 L-32,467 L-21,483 L-10,497 L5,513 L14,522 L25,531 L38,541 L53,551 L75,563 L99,573 L114,578 L136,583 L156,586 L165,587 L279,587 L308,583 L333,577 L353,570 L371,562 L388,553 L399,546 L413,536 L424,527 L434,518 L451,501 L460,490 L473,472 L484,453 L492,437 L500,418 L507,394 L511,374 L513,360 L514,347 L514,321 L509,285 L504,266 L495,241 L487,224 L476,205 L464,188 L453,175 L444,165 L433,154 L422,145 L407,133 L386,120 L365,109 L341,100 L321,94 L300,90 L283,88 Z " fill="#040302" transform="translate(290,208)"/>

<path d="M0,0 L15,0 L27,3 L43,11 L55,22 L62,31 L67,42 L70,53 L70,66 L67,80 L62,92 L55,103 L47,111 L34,119 L23,123 L17,124 L-5,124 L-20,119 L-31,112 L-41,103 L-48,93 L-53,81 L-55,74 L-55,52 L-52,40 L-45,27 L-36,17 L-27,10 L-13,3 Z " fill="#040201" transform="translate(326,448)"/>
<path d="M0,0 L11,0 L26,3 L40,10 L50,18 L57,26 L64,38 L67,47 L68,52 L68,73 L63,88 L56,100 L48,109 L38,116 L28,121 L16,124 L-4,124 L-16,121 L-29,114 L-40,105 L-48,94 L-53,84 L-56,72 L-56,51 L-53,40 L-48,30 L-41,21 L-31,12 L-16,4 Z " fill="#040201" transform="translate(685,448)"/>
<path d="M0,0 L39,0 L62,4 L76,11 L81,18 L81,32 L77,42 L70,53 L59,65 L49,72 L33,80 L31,80 L32,116 L36,126 L43,134 L51,138 L66,138 L79,132 L86,132 L92,137 L93,139 L93,146 L88,151 L76,157 L64,160 L53,160 L38,155 L27,148 L21,141 L14,147 L7,153 L-5,158 L-13,160 L-24,160 L-36,157 L-48,151 L-52,147 L-52,137 L-46,132 L-37,133 L-28,138 L-11,138 L-2,133 L5,125 L8,118 L9,113 L10,80 L5,79 L-7,73 L-18,65 L-26,58 L-35,46 L-41,33 L-42,22 L-39,14 L-32,8 L-22,4 Z " fill="#030303" transform="translate(492,532)"/>




<path d="M0,0 L8,0 L10,1 L22,3 L42,5 L159,6 L156,8 L42,8 L18,5 L0,1 Z " fill="#A9764A" transform="translate(413,787)"/>
<path d="M0,0 L20,0 L27,2 L41,8 L41,10 L48,12 L55,20 L62,29 L64,30 L67,37 L72,52 L72,74 L70,75 L69,53 L66,42 L60,30 L52,20 L42,12 L28,5 L13,2 L2,2 L-14,6 L-29,14 L-37,20 L-35,16 L-34,14 L-31,14 L-29,10 L-25,8 L-21,8 L-21,6 L-12,4 L-12,2 Z " fill="#CD905A" transform="translate(683,447)"/>
<path d="M0,0 L4,5 L12,15 L22,23 L34,29 L44,32 L66,32 L78,29 L92,22 L103,12 L110,1 L111,4 L105,14 L100,18 L96,23 L89,27 L78,32 L72,34 L63,35 L46,35 L28,29 L18,23 L7,13 L0,3 Z " fill="#CD905A" transform="translate(277,539)"/>
<path d="M0,0 L0,3 L-6,10 L-10,14 L-14,24 L-15,40 L-11,59 L-9,59 L-2,69 L3,72 L3,74 L8,75 L8,77 L14,76 L13,79 L7,78 L-2,72 L-10,63 L-15,53 L-18,41 L-18,30 L-15,19 L-9,9 L-4,3 Z " fill="#CA8D57" transform="translate(272,271)"/>
<path d="M0,0 L3,0 L8,7 L13,12 L22,22 L31,29 L31,31 L34,31 L39,37 L57,50 L68,57 L79,63 L81,64 L81,66 L76,64 L60,55 L42,42 L31,33 L18,21 L8,11 L1,3 Z " fill="#C98D59" transform="translate(278,701)"/>
<path d="M0,0 L3,1 L12,14 L17,26 L20,34 L23,41 L25,50 L25,89 L22,101 L20,101 L21,93 L23,82 L23,60 L21,46 L16,30 L11,18 L2,4 Z " fill="#D49A64" transform="translate(602,550)"/>
<path d="M0,0 L5,0 L1,3 L-17,11 L-44,20 L-67,25 L-83,27 L-88,27 L-88,25 L-71,23 L-69,22 L-53,20 L-34,14 L-21,10 L-18,10 L-18,8 L-12,6 L-9,4 L-4,4 L-4,2 Z " fill="#CD905A" transform="translate(660,767)"/>
<path d="M0,0 L4,1 L12,7 L25,13 L34,15 L54,15 L66,12 L78,6 L83,3 L81,7 L79,9 L75,9 L75,11 L61,17 L52,18 L49,19 L31,17 L18,13 L7,7 L7,5 L2,3 L0,2 Z " fill="#CF925C" transform="translate(647,556)"/>
<path d="M0,0 L1,0 L3,15 L3,41 L1,60 L-2,80 L-5,92 L-6,92 L-5,82 L-4,72 L-2,72 L-2,62 L-1,57 L0,41 Z " fill="#C98D56" transform="translate(801,514)"/>
<path d="M0,0 L4,2 L19,16 L28,25 L37,36 L47,49 L59,68 L62,74 L61,76 L52,61 L52,59 L50,59 L45,50 L32,34 L25,26 L16,16 L12,13 L12,11 L8,9 L0,2 Z " fill="#C9905D" transform="translate(713,355)"/>
<path d="M0,0 L121,0 L133,2 L133,3 L119,3 L110,2 L0,1 Z " fill="#CE925C" transform="translate(452,296)"/>
<path d="M0,0 L9,3 L22,7 L34,9 L60,9 L78,7 L74,10 L62,12 L34,12 L22,10 L4,4 L0,2 Z " fill="#D69B64" transform="translate(464,723)"/>
<path d="M0,0 L2,0 L0,14 L0,37 L3,55 L10,73 L10,75 L8,75 L2,60 L-2,45 L-2,6 Z " fill="#D49B65" transform="translate(399,595)"/>
<path d="M0,0 L18,0 L30,4 L39,10 L44,14 L51,24 L53,30 L51,32 L48,23 L43,17 L43,15 L39,13 L36,10 L29,6 L24,5 L24,3 L14,2 L3,2 L-6,4 L-10,5 L-10,3 Z " fill="#CC8F5A" transform="translate(714,262)"/>
<path d="M0,0 L4,5 L13,16 L24,28 L39,39 L47,43 L43,44 L27,34 L13,20 L4,9 L0,3 Z " fill="#D59A63" transform="translate(413,677)"/>
<path d="M0,0 L8,0 L9,2 L-15,5 L-33,9 L-40,12 L-47,12 L-46,10 L-24,4 Z " fill="#C78C57" transform="translate(442,297)"/>
<path d="M0,0 L24,0 L34,2 L34,4 L39,4 L35,6 L27,3 L21,2 L6,2 L-7,5 L-22,12 L-21,8 L-9,3 Z " fill="#CB8D57" transform="translate(320,447)"/>
<path d="M0,0 L1,0 L0,26 L-1,50 L-2,57 L-3,57 L-3,23 Z " fill="#BA814D" transform="translate(223,502)"/>
<path d="M0,0 L3,1 L-7,9 L-21,18 L-35,26 L-37,26 L-37,24 L-30,22 L-30,20 L-25,17 L-22,16 L-21,14 L-18,14 L-18,12 L-14,10 L-11,10 L-10,7 L-7,7 L-7,5 L-2,2 L0,2 Z " fill="#CC8F59" transform="translate(702,741)"/>
<path d="M0,0 L8,0 L10,1 L22,3 L42,5 L41,7 L24,6 L4,2 Z " fill="#CA8D56" transform="translate(413,787)"/>


<path d="M0,0 L0,3 L-3,6 L-7,6 L-7,8 L-21,14 L-43,14 L-43,13 L-28,12 L-16,9 L-4,3 Z " fill="#C58955" transform="translate(729,559)"/>

<path d="M0,0 L2,0 L6,8 L6,10 L8,10 L15,23 L22,32 L21,35 L11,21 L0,2 Z " fill="#CA8E59" transform="translate(249,657)"/>
<path d="M0,0 L17,6 L38,16 L39,18 L34,18 L34,16 L28,14 L23,11 L15,8 L3,3 L0,2 Z " fill="#CB905B" transform="translate(633,309)"/>
<path d="M0,0 L3,1 L-5,13 L-14,25 L-16,26 L-15,21 L-13,21 L-11,16 L-8,12 L-6,12 L-5,8 L-3,8 L-2,3 L0,3 Z " fill="#CE915A" transform="translate(763,674)"/>
<path d="M0,0 L2,1 L-8,23 L-13,32 L-14,32 L-14,27 L-12,27 L-11,21 L-9,21 L-9,18 L-7,18 L-4,6 L-2,3 L0,3 Z " fill="#CC8E58" transform="translate(784,635)"/>
</svg>