<svg data-animal="chameleon" viewBox="0 0 1024 1024" version="1.1" xmlns="http://www.w3.org/2000/svg" width="100%" height="100%">

<path d="M0,0 L16,0 L27,3 L35,7 L45,16 L148,119 L148,121 L159,115 L171,110 L188,110 L197,115 L202,120 L207,127 L209,132 L209,157 L208,179 L219,180 L235,183 L245,186 L261,193 L273,201 L286,212 L294,221 L301,231 L310,248 L316,266 L318,280 L318,302 L314,322 L307,341 L298,356 L290,366 L277,379 L262,389 L247,396 L242,397 L242,426 L240,439 L237,451 L232,464 L225,477 L217,487 L202,502 L186,514 L171,524 L146,538 L126,547 L101,556 L88,560 L67,565 L51,568 L30,570 L-13,570 L-42,566 L-60,562 L-79,557 L-99,550 L-122,540 L-143,529 L-162,517 L-178,505 L-192,493 L-201,483 L-210,469 L-216,456 L-219,447 L-222,431 L-222,397 L-227,396 L-238,391 L-250,384 L-260,376 L-274,362 L-284,347 L-292,330 L-296,316 L-298,304 L-298,276 L-294,258 L-288,243 L-280,229 L-269,215 L-261,207 L-246,196 L-229,187 L-209,181 L-196,179 L-188,179 L-189,160 L-189,131 L-185,123 L-178,115 L-168,110 L-151,110 L-137,116 L-131,120 L-127,118 L-17,8 L-9,3 Z " fill="#040706" transform="translate(502,227)"/>
<path d="M0,0 L10,0 L18,3 L26,10 L38,22 L43,27 L55,38 L66,49 L71,54 L80,64 L85,69 L129,113 L123,120 L115,128 L101,147 L89,168 L81,185 L71,215 L63,251 L55,289 L47,324 L46,335 L50,340 L52,341 L59,341 L63,340 L65,335 L74,296 L82,258 L87,235 L92,214 L99,194 L108,174 L118,157 L128,144 L137,134 L145,126 L159,116 L171,110 L179,110 L184,115 L184,135 L183,161 L168,165 L156,170 L143,177 L131,186 L118,199 L109,212 L101,228 L95,246 L93,257 L93,280 L96,297 L102,315 L110,330 L119,342 L127,351 L141,362 L157,371 L172,377 L184,380 L191,381 L217,382 L217,401 L188,406 L168,409 L115,416 L98,418 L54,421 L-44,421 L-87,418 L-132,413 L-178,406 L-205,401 L-205,382 L-183,381 L-168,379 L-150,373 L-134,365 L-123,357 L-113,348 L-104,338 L-95,324 L-88,309 L-83,292 L-82,284 L-82,253 L-86,236 L-93,219 L-102,204 L-114,191 L-121,184 L-136,174 L-153,166 L-170,161 L-172,138 L-172,115 L-167,110 L-160,110 L-144,118 L-134,126 L-124,135 L-117,143 L-107,156 L-97,173 L-87,194 L-79,218 L-72,249 L-65,283 L-60,306 L-57,319 L-52,337 L-49,340 L-47,341 L-40,341 L-35,337 L-34,335 L-34,328 L-40,304 L-45,280 L-50,257 L-60,212 L-68,188 L-79,164 L-89,147 L-99,133 L-109,122 L-114,117 L-117,114 L-115,110 L-100,96 L-55,51 L-48,43 L-11,6 L-3,1 Z " fill="#5ECEBB" transform="translate(506,248)"/>
<path d="M0,0 L10,1 L40,6 L86,12 L146,17 L168,18 L245,18 L269,17 L305,14 L360,8 L391,3 L404,1 L414,0 L409,14 L401,26 L392,36 L384,43 L371,53 L354,64 L332,76 L312,85 L292,92 L264,100 L239,104 L229,105 L184,105 L165,103 L145,99 L121,92 L99,84 L72,71 L50,58 L34,46 L20,34 L12,25 L5,14 L0,2 Z " fill="#5ECEBC" transform="translate(305,671)"/>


<path d="M0,0 L12,1 L32,4 L49,7 L78,11 L129,16 L154,18 L181,19 L232,19 L276,17 L310,14 L332,12 L357,9 L388,4 L401,2 L413,0 L422,0 L422,16 L393,21 L373,24 L320,31 L303,33 L259,36 L161,36 L118,33 L73,28 L27,21 L0,16 Z " fill="#96EBE0" transform="translate(301,633)"/>
<path d="M0,0 L10,1 L40,6 L86,12 L146,17 L168,18 L245,18 L269,17 L305,14 L360,8 L391,3 L404,1 L414,0 L409,14 L406,18 L386,22 L341,28 L304,32 L248,36 L170,36 L134,34 L107,32 L87,30 L73,28 L47,25 L27,22 L10,19 L7,18 L1,5 Z " fill="#96ECDF" transform="translate(305,671)"/>
<path d="M0,0 L10,3 L22,8 L38,14 L63,21 L84,26 L105,30 L130,33 L143,34 L186,34 L216,31 L258,23 L293,13 L315,5 L327,0 L330,1 L320,8 L303,18 L282,29 L259,38 L237,45 L216,50 L197,53 L187,54 L142,54 L123,52 L103,48 L79,41 L57,33 L30,20 L8,7 L0,1 Z " fill="#4FAFA0" transform="translate(347,722)"/>
<path d="M0,0 L15,0 L26,4 L34,10 L40,18 L44,27 L44,44 L39,56 L32,64 L24,69 L19,71 L13,72 L2,72 L-8,69 L-16,63 L-23,55 L-27,45 L-28,42 L-28,30 L-24,19 L-22,18 L-17,26 L-12,29 L-4,29 L2,26 L5,22 L6,19 L6,12 L2,6 L-4,3 L-4,1 Z " fill="#040504" transform="translate(675,483)"/>
<path d="M0,0 L13,0 L19,1 L19,3 L14,6 L10,12 L10,19 L13,25 L18,29 L26,29 L33,26 L37,17 L40,19 L43,27 L43,43 L39,54 L33,62 L23,69 L18,71 L12,72 L1,72 L-10,68 L-19,61 L-25,52 L-28,44 L-28,27 L-24,18 L-20,12 L-12,5 Z " fill="#040504" transform="translate(333,483)"/>
<path d="M0,0 L7,0 L13,4 L22,15 L31,27 L32,29 L31,38 L27,42 L18,43 L12,38 L2,25 L-6,15 L-6,6 L-2,1 Z " fill="#030806" transform="translate(444,602)"/>
<path d="M0,0 L8,0 L13,4 L14,6 L14,14 L8,22 L-3,35 L-8,41 L-10,42 L-19,42 L-24,37 L-24,27 L-15,16 L-4,3 Z " fill="#020705" transform="translate(572,602)"/>
<path d="M0,0 L3,1 L-46,50 L-47,47 L-40,39 L-3,2 Z " fill="#60B9AA" transform="translate(498,252)"/>
<path d="M0,0 L10,3 L14,5 L18,10 L21,11 L21,13 L23,13 L23,15 L18,13 L4,4 Z " fill="#57A094" transform="translate(347,722)"/>
</svg>