<svg data-animal="deer" viewBox="0 0 1024 1024" version="1.1" xmlns="http://www.w3.org/2000/svg" width="100%" height="100%">


<path d="M0,0 L22,0 L34,1 L36,7 L37,15 L37,41 L36,55 L31,80 L28,92 L23,104 L16,120 L7,135 L-2,147 L-11,157 L-23,169 L-39,181 L-54,190 L-71,199 L-96,209 L-107,213 L-131,219 L-147,222 L-164,223 L-158,237 L-151,261 L-147,285 L-147,324 L-152,351 L-157,367 L-164,386 L-175,407 L-185,422 L-196,436 L-212,453 L-220,460 L-235,472 L-250,482 L-267,492 L-287,501 L-306,508 L-320,512 L-344,517 L-362,519 L-397,519 L-422,516 L-448,510 L-471,502 L-500,488 L-518,477 L-532,466 L-546,454 L-563,437 L-572,426 L-582,412 L-592,394 L-601,374 L-608,352 L-613,322 L-613,286 L-609,260 L-602,236 L-597,225 L-596,223 L-613,222 L-633,218 L-659,211 L-680,203 L-699,194 L-716,184 L-731,173 L-744,162 L-755,151 L-765,138 L-774,124 L-783,105 L-791,82 L-795,60 L-797,46 L-797,12 L-795,1 L-749,1 L-729,4 L-710,8 L-683,18 L-662,29 L-645,41 L-633,52 L-622,63 L-610,79 L-602,92 L-590,115 L-583,134 L-577,154 L-573,175 L-573,183 L-568,178 L-557,166 L-545,154 L-531,143 L-516,132 L-501,123 L-484,114 L-459,104 L-433,97 L-410,93 L-401,92 L-363,92 L-337,95 L-317,99 L-301,104 L-276,114 L-255,125 L-241,134 L-225,146 L-215,155 L-207,162 L-200,169 L-191,180 L-189,182 L-182,150 L-173,123 L-164,103 L-155,87 L-142,69 L-132,58 L-127,52 L-119,45 L-104,33 L-83,21 L-65,13 L-46,7 L-29,3 L-15,1 Z M-395,111 L-419,114 L-439,118 L-459,124 L-486,136 L-508,149 L-521,159 L-534,170 L-551,187 L-562,202 L-572,218 L-580,233 L-585,245 L-589,259 L-594,283 L-594,321 L-591,340 L-586,359 L-578,379 L-568,398 L-559,411 L-551,421 L-542,431 L-527,446 L-513,457 L-503,464 L-490,472 L-474,480 L-454,488 L-438,493 L-407,499 L-394,500 L-369,500 L-342,497 L-323,493 L-303,487 L-283,479 L-266,470 L-248,458 L-232,445 L-218,432 L-211,424 L-199,409 L-188,391 L-178,370 L-172,352 L-168,335 L-166,322 L-166,287 L-170,263 L-176,243 L-188,218 L-200,199 L-211,186 L-218,178 L-230,166 L-244,155 L-258,145 L-280,133 L-296,126 L-319,118 L-345,113 L-368,111 Z " fill="#050403" transform="translate(892,261)"/>
<path d="M0,0 L27,0 L50,2 L76,7 L102,16 L125,27 L143,38 L156,48 L169,59 L183,73 L194,87 L204,102 L214,121 L215,126 L197,122 L192,121 L163,121 L142,126 L124,134 L113,141 L102,150 L91,161 L82,174 L73,190 L67,205 L62,227 L60,244 L59,260 L50,257 L37,253 L26,251 L1,251 L-16,255 L-28,260 L-30,260 L-31,232 L-35,213 L-40,197 L-48,180 L-56,168 L-64,158 L-76,146 L-87,138 L-104,129 L-119,124 L-133,121 L-160,121 L-178,124 L-186,126 L-182,116 L-173,100 L-162,84 L-153,73 L-135,55 L-125,47 L-110,36 L-85,22 L-61,12 L-36,5 L-11,1 Z " fill="#D1762A" transform="translate(497,372)"/>


<path d="M0,0 L1,4 L1,41 L6,71 L16,100 L24,117 L34,133 L45,147 L62,164 L79,176 L96,185 L114,192 L122,194 L124,210 L130,226 L139,238 L149,247 L161,254 L169,257 L169,258 L160,257 L138,252 L118,245 L98,236 L83,227 L66,215 L52,203 L34,185 L21,168 L10,150 L1,131 L-6,110 L-10,91 L-11,82 L-11,44 L-5,15 Z " fill="#CE762C" transform="translate(309,500)"/>
<path d="M0,0 L2,3 L8,21 L11,35 L13,49 L13,84 L10,103 L3,127 L-5,145 L-14,162 L-24,176 L-33,187 L-46,201 L-54,208 L-70,221 L-89,233 L-106,242 L-130,251 L-152,257 L-163,259 L-167,258 L-154,253 L-141,244 L-132,234 L-124,218 L-121,207 L-120,195 L-99,188 L-82,180 L-64,168 L-54,159 L-47,153 L-38,142 L-30,131 L-18,110 L-10,90 L-3,67 L0,49 L1,38 L1,7 Z " fill="#CE772D" transform="translate(713,499)"/>
<path d="M0,0 L1,0 L1,13 L-3,25 L-7,31 L-9,34 L-8,42 L-8,62 L-11,74 L-18,88 L-27,98 L-36,104 L-46,107 L-57,107 L-68,103 L-76,97 L-84,89 L-91,75 L-94,64 L-94,44 L-91,32 L-84,19 L-76,10 L-66,4 L-59,1 L-46,1 L-38,3 L-28,8 L-24,12 L-16,11 L-6,6 Z " fill="#050504" transform="translate(695,543)"/>
<path d="M0,0 L8,6 L18,11 L25,11 L32,5 L41,1 L45,0 L59,0 L69,4 L78,10 L85,18 L92,32 L95,45 L95,58 L93,69 L88,83 L82,91 L78,96 L67,103 L57,106 L45,106 L33,101 L22,92 L14,80 L9,64 L9,41 L10,32 L5,26 L1,17 L0,10 Z " fill="#060504" transform="translate(328,544)"/>
<path d="M0,0 L25,0 L35,2 L48,7 L58,16 L62,23 L62,34 L57,44 L47,53 L31,61 L25,63 L21,63 L22,85 L27,90 L32,92 L41,92 L50,87 L54,78 L57,75 L64,75 L68,79 L67,87 L61,97 L54,103 L43,107 L28,107 L16,102 L12,100 L4,105 L-5,107 L-19,107 L-31,101 L-38,93 L-42,84 L-41,77 L-38,74 L-31,75 L-28,77 L-24,87 L-18,91 L-15,92 L-5,92 L3,88 L5,86 L6,63 L-2,62 L-15,57 L-25,50 L-30,45 L-34,40 L-36,35 L-36,23 L-31,15 L-23,8 L-12,3 Z " fill="#050402" transform="translate(499,636)"/>



<path d="M0,0 L27,0 L50,2 L76,7 L102,16 L125,27 L143,38 L148,43 L144,43 L142,40 L131,34 L122,28 L112,24 L110,22 L94,16 L81,11 L70,9 L69,8 L60,6 L49,5 L46,4 L27,3 L9,3 L-12,4 L-18,5 L-27,6 L-28,7 L-38,8 L-47,11 L-58,14 L-69,19 L-78,22 L-87,27 L-95,30 L-112,40 L-116,44 L-118,42 L-108,35 L-87,23 L-61,12 L-36,5 L-11,1 Z " fill="#B5733E" transform="translate(497,372)"/>








<path d="M0,0 L1,4 L0,41 L-2,38 L-3,18 L-7,36 L-8,45 L-9,46 L-9,76 L-4,109 L-1,119 L1,125 L0,128 L-6,110 L-10,91 L-11,82 L-11,44 L-5,15 Z " fill="#B4743E" transform="translate(309,500)"/>



<path d="M0,0 L2,3 L2,25 L5,25 L5,23 L18,19 L26,17 L61,17 L66,19 L62,20 L56,19 L31,19 L14,23 L2,28 L0,28 Z " fill="#C88143" transform="translate(467,604)"/>
<path d="M0,0 L4,2 L20,18 L31,32 L41,47 L51,66 L52,71 L49,70 L46,61 L43,55 L43,53 L41,53 L36,43 L26,29 L15,17 L15,15 L12,14 L5,6 L0,2 Z " fill="#B37542" transform="translate(660,427)"/>
<path d="M0,0 L5,0 L1,3 L-26,12 L-44,16 L-53,17 L-50,15 L-38,10 L-31,6 L-33,10 L-34,12 L-23,8 L-12,5 L-11,4 L-6,4 L-6,2 Z " fill="#B47944" transform="translate(599,741)"/>
<path d="M0,0 L5,2 L26,13 L33,16 L45,20 L51,23 L58,24 L58,26 L64,26 L65,29 L53,26 L31,18 L15,10 L4,4 Z " fill="#B1713D" transform="translate(391,725)"/>
<path d="M0,0 L1,4 L0,41 L-2,38 L-3,18 L-7,36 L-8,36 L-8,28 L-3,9 Z " fill="#BB7C47" transform="translate(309,500)"/>
<path d="M0,0 L2,3 L8,21 L10,29 L10,35 L8,34 L5,19 L4,18 L4,29 L2,53 L0,53 L1,38 L1,7 Z " fill="#B47746" transform="translate(713,499)"/>
<path d="M0,0 L1,0 L0,12 L-5,33 L-13,54 L-18,64 L-19,64 L-19,59 L-17,55 L-15,55 L-12,46 L-8,33 L-7,32 L-5,22 L-2,11 L-1,1 Z " fill="#B47540" transform="translate(724,584)"/>

<path d="M0,0 L2,0 L0,6 L-10,22 L-21,36 L-22,32 L-20,32 L-20,30 L-18,30 L-18,27 L-16,27 L-16,25 L-14,25 L-13,21 L-8,13 L-6,13 L-6,10 L-4,10 L-4,7 L-2,7 L-2,3 L0,3 Z " fill="#B77640" transform="translate(703,648)"/>
<path d="M0,0 L0,3 L-7,14 L-17,30 L-21,39 L-22,41 L-20,42 L-25,43 L-21,33 L-12,17 L-1,1 Z " fill="#B37642" transform="translate(336,455)"/>
<path d="M0,0 L2,1 L-6,16 L-12,33 L-15,46 L-16,46 L-16,38 L-12,23 L-5,9 L-2,2 L0,2 Z " fill="#C67B3D" transform="translate(575,548)"/>
<path d="M0,0 L3,0 L3,2 L-14,15 L-25,22 L-26,20 L-25,18 L-21,18 L-21,16 L-18,15 L-16,12 L-13,12 L-13,10 L-10,8 L-7,8 L-6,5 L-1,2 Z " fill="#BA7741" transform="translate(654,707)"/>
<path d="M0,0 L0,3 L-10,12 L-14,16 L-19,19 L-29,29 L-31,28 L-15,12 L-5,4 Z " fill="#B57440" transform="translate(377,415)"/>
<path d="M0,0 L40,0 L41,3 L32,2 L3,2 L-6,4 L-10,4 L-10,2 Z " fill="#C87F3F" transform="translate(657,491)"/>
</svg>