<svg data-animal="octopus" viewBox="0 0 1024 1024" version="1.1" xmlns="http://www.w3.org/2000/svg" width="100%" height="100%">


<path d="M0,0 L49,0 L68,2 L97,7 L115,12 L135,19 L158,29 L178,40 L193,50 L206,60 L220,72 L235,87 L244,98 L254,111 L263,126 L274,147 L282,168 L286,184 L289,197 L291,209 L292,222 L292,247 L289,269 L286,284 L283,295 L276,315 L268,332 L257,351 L247,365 L236,378 L229,386 L230,392 L231,393 L243,395 L303,406 L319,409 L333,416 L343,425 L350,434 L355,444 L358,455 L358,475 L355,487 L349,499 L342,508 L332,517 L318,524 L309,527 L301,528 L284,528 L273,526 L232,507 L207,496 L211,512 L211,526 L209,536 L204,548 L198,558 L187,569 L175,576 L160,581 L156,582 L139,582 L124,578 L112,572 L101,564 L93,555 L67,516 L40,476 L36,472 L33,471 L21,471 L14,475 L-1,498 L-19,525 L-38,553 L-47,563 L-56,571 L-68,577 L-76,580 L-82,581 L-106,581 L-121,576 L-135,567 L-144,558 L-152,544 L-155,537 L-157,526 L-157,515 L-155,503 L-153,496 L-193,514 L-215,524 L-224,527 L-230,528 L-250,528 L-265,524 L-276,518 L-286,510 L-293,502 L-301,487 L-304,475 L-304,453 L-299,440 L-294,431 L-285,421 L-274,413 L-262,408 L-228,402 L-185,394 L-176,392 L-176,385 L-185,375 L-196,361 L-207,344 L-213,334 L-224,309 L-231,288 L-235,267 L-237,254 L-237,210 L-234,191 L-227,165 L-217,141 L-208,124 L-196,106 L-186,93 L-174,80 L-164,70 L-153,61 L-143,53 L-122,39 L-98,26 L-74,16 L-61,12 L-43,7 L-17,2 Z M4,19 L-23,23 L-43,27 L-76,38 L-100,49 L-127,65 L-140,75 L-150,83 L-155,88 L-168,101 L-177,112 L-187,127 L-198,146 L-205,161 L-211,179 L-216,200 L-218,215 L-218,253 L-214,276 L-207,300 L-198,321 L-189,337 L-178,353 L-169,364 L-159,375 L-156,381 L-156,397 L-162,406 L-170,411 L-207,418 L-257,427 L-267,431 L-276,439 L-283,451 L-285,458 L-285,469 L-283,478 L-279,487 L-273,495 L-265,502 L-257,506 L-249,508 L-228,508 L-211,501 L-178,486 L-143,470 L-123,461 L-115,457 L-99,441 L-92,436 L-83,437 L-80,441 L-80,449 L-87,457 L-103,472 L-114,482 L-122,489 L-130,496 L-136,508 L-137,511 L-137,525 L-135,533 L-129,545 L-123,552 L-112,559 L-104,562 L-85,562 L-72,558 L-61,551 L-54,543 L-44,527 L-16,485 L-6,470 L0,462 L8,456 L17,452 L22,451 L33,451 L43,454 L51,459 L58,467 L81,502 L91,517 L103,535 L111,546 L118,553 L134,561 L137,562 L156,562 L170,557 L179,550 L185,542 L190,531 L191,524 L191,511 L187,501 L178,491 L165,479 L157,472 L145,461 L135,451 L134,449 L134,441 L139,436 L145,436 L151,440 L164,452 L171,458 L197,470 L226,483 L267,502 L278,507 L287,509 L298,509 L313,505 L323,499 L332,489 L337,477 L338,474 L338,455 L335,446 L328,437 L319,430 L310,427 L287,423 L267,419 L229,412 L220,409 L214,404 L210,396 L209,393 L209,383 L214,373 L225,362 L237,346 L248,328 L258,307 L266,283 L270,265 L272,251 L272,216 L268,192 L262,170 L254,150 L245,133 L234,117 L224,104 L212,91 L205,84 L194,75 L187,69 L166,55 L140,42 L125,36 L100,28 L79,23 L48,19 Z " fill="#060403" transform="translate(485,212)"/>
<path d="M0,0 L21,0 L38,4 L52,11 L64,22 L71,31 L78,45 L81,58 L81,77 L78,90 L73,102 L64,115 L54,124 L40,132 L27,136 L21,137 L2,137 L-10,134 L-22,129 L-32,122 L-43,111 L-51,98 L-56,83 L-57,79 L-57,57 L-54,45 L-47,31 L-38,20 L-30,13 L-16,5 Z " fill="#030101" transform="translate(380,392)"/>
<path d="M0,0 L20,0 L33,3 L45,8 L55,15 L63,22 L70,32 L77,46 L80,59 L80,76 L78,87 L72,102 L64,113 L60,118 L47,128 L33,134 L22,137 L0,137 L-12,134 L-28,126 L-39,117 L-47,107 L-54,93 L-56,88 L-58,77 L-58,57 L-54,43 L-48,31 L-40,21 L-31,13 L-21,7 L-10,2 Z " fill="#030101" transform="translate(621,392)"/>
<path d="M0,0 L16,8 L31,18 L40,25 L50,34 L58,41 L67,50 L78,64 L88,78 L98,95 L107,115 L113,135 L118,159 L119,167 L119,202 L115,227 L107,253 L99,271 L91,286 L81,301 L70,315 L61,324 L56,334 L56,344 L60,353 L64,358 L72,362 L92,366 L92,367 L67,366 L56,365 L45,361 L39,357 L33,349 L30,340 L30,330 L33,321 L37,315 L52,300 L64,284 L76,265 L85,246 L90,232 L96,210 L99,187 L99,161 L96,140 L92,122 L85,99 L74,76 L67,65 L58,53 L47,40 L40,32 L31,23 L18,13 L4,4 L0,2 Z " fill="#D84F37" transform="translate(638,261)"/>
<path d="M0,0 L2,0 L1,3 L-8,10 L-16,19 L-22,24 L-25,32 L-32,42 L-38,53 L-43,64 L-52,88 L-57,112 L-60,135 L-60,169 L-57,189 L-51,209 L-43,229 L-33,248 L-22,264 L-12,277 L3,292 L8,300 L9,304 L9,319 L6,327 L-1,335 L-10,340 L-19,342 L-47,342 L-47,341 L-32,338 L-24,333 L-18,324 L-18,308 L-23,300 L-34,288 L-45,273 L-55,257 L-63,241 L-69,227 L-77,199 L-80,180 L-80,142 L-78,127 L-71,99 L-63,79 L-54,62 L-42,43 L-34,33 L-22,20 L-15,13 L-7,6 Z " fill="#D84E37" transform="translate(347,285)"/>




<path d="M0,0 L13,0 L24,4 L31,10 L36,18 L38,23 L38,38 L34,49 L27,57 L19,62 L13,64 L-3,64 L-13,59 L-21,51 L-26,40 L-26,26 L-23,17 L-19,11 L-11,4 L-5,1 Z " fill="#080201" transform="translate(506,505)"/>



<path d="M0,0 L9,0 L15,4 L18,9 L17,18 L12,24 L10,25 L0,25 L-5,22 L-8,16 L-8,9 L-4,3 Z " fill="#DD573C" transform="translate(507,524)"/>
<path d="M0,0 L31,0 L42,2 L51,7 L56,9 L66,17 L71,22 L81,36 L86,49 L89,60 L89,81 L87,81 L87,89 L82,100 L80,105 L78,105 L77,109 L74,114 L67,121 L64,120 L69,115 L76,106 L82,94 L85,85 L86,77 L86,60 L83,47 L75,31 L67,21 L57,13 L43,6 L38,4 L27,2 L7,2 L-5,5 L-21,13 L-26,16 L-24,12 L-22,12 L-22,10 L-17,9 L-16,6 L-12,4 L-4,2 Z " fill="#CF6D51" transform="translate(614,391)"/>
<path d="M0,0 L11,0 L22,1 L31,3 L31,5 L36,6 L47,12 L60,23 L65,28 L68,35 L71,40 L75,50 L76,58 L77,59 L77,81 L76,82 L75,91 L73,94 L71,94 L74,79 L74,60 L71,47 L63,31 L51,18 L41,11 L29,6 L15,3 L-6,3 L-22,8 L-33,14 L-35,15 L-34,11 L-31,11 L-31,9 L-27,9 L-27,7 L-11,2 Z " fill="#CD6B50" transform="translate(386,390)"/>
<path d="M0,0 L3,3 L10,22 L16,48 L18,62 L18,97 L14,122 L12,125 L12,115 L14,101 L15,99 L15,60 L12,44 L6,18 L4,12 L4,10 L2,10 L0,4 Z " fill="#B0503E" transform="translate(739,366)"/>
<path d="M0,0 L2,0 L1,5 L-4,19 L-6,19 L-7,26 L-10,42 L-12,51 L-13,58 L-14,75 L-14,93 L-11,114 L-6,135 L-7,139 L-13,118 L-16,99 L-16,61 L-14,46 L-7,18 Z " fill="#B65241" transform="translate(283,366)"/>
<path d="M0,0 L39,0 L42,1 L59,2 L69,5 L65,6 L40,3 L-4,3 L-31,7 L-43,9 L-42,6 L-33,4 L-20,2 Z " fill="#220402" transform="translate(493,229)"/>
<path d="M0,0 L2,3 L8,17 L10,25 L12,25 L16,34 L24,47 L31,57 L38,66 L38,68 L40,68 L40,70 L42,70 L42,72 L44,72 L47,75 L47,78 L51,80 L54,87 L55,91 L55,102 L53,104 L52,88 L47,80 L36,68 L25,53 L15,37 L7,21 L1,7 Z " fill="#B55243" transform="translate(277,505)"/>
<path d="M0,0 L6,4 L17,11 L29,16 L38,18 L60,18 L76,13 L88,7 L95,2 L93,6 L82,13 L76,17 L70,19 L62,20 L61,21 L37,21 L23,17 L11,11 L11,9 L6,7 L0,2 Z " fill="#CB6B51" transform="translate(583,510)"/>
<path d="M0,0 L3,0 L1,5 L-6,17 L-16,42 L-18,47 L-18,55 L-15,61 L-11,63 L-3,63 L3,60 L5,55 L6,55 L6,61 L1,65 L-13,65 L-18,61 L-20,57 L-20,42 L-18,42 L-17,36 L-14,28 L-12,28 L-12,23 L-10,23 L-10,19 L-8,19 L-8,14 L-6,10 L-4,10 L-4,5 L-2,5 Z " fill="#DB7B5D" transform="translate(317,336)"/>
<path d="M0,0 L44,0 L69,3 L69,4 L51,4 L45,3 L2,3 L-5,4 L-18,4 L-16,2 Z " fill="#CA694F" transform="translate(489,231)"/>
<path d="M0,0 L2,1 L4,11 L5,22 L6,25 L6,59 L3,78 L1,83 L0,79 L3,59 L3,24 L0,5 Z " fill="#200201" transform="translate(753,404)"/>
<path d="M0,0 L1,4 L-7,28 L-19,53 L-31,71 L-36,77 L-37,74 L-35,74 L-34,70 L-33,68 L-31,68 L-31,66 L-29,66 L-28,62 L-25,57 L-22,52 L-20,52 L-17,42 L-15,42 L-13,34 L-11,34 L-10,29 L-4,13 Z " fill="#B95443" transform="translate(750,491)"/>
<path d="M0,0 L9,0 L15,4 L18,9 L17,18 L12,24 L10,25 L0,25 L-5,22 L-8,16 L-8,9 L-4,3 Z M5,2 L-2,3 L-6,8 L-6,17 L-1,23 L1,24 L8,24 L12,22 L14,17 L16,17 L16,8 L14,5 L12,5 L12,3 Z " fill="#B75A48" transform="translate(507,524)"/>
<path d="M0,0 L0,3 L-7,9 L-8,11 L-17,16 L-24,20 L-36,24 L-41,25 L-63,25 L-64,23 L-43,22 L-27,18 L-13,11 L-3,3 Z " fill="#CE6B51" transform="translate(444,506)"/>
<path d="M0,0 L6,0 L5,2 L-3,3 L-4,4 L-19,6 L-26,8 L-37,10 L-42,12 L-44,16 L-52,23 L-52,20 L-45,12 L-36,7 L-22,4 Z " fill="#CC674C" transform="translate(260,633)"/>
<path d="M0,0 L12,1 L37,6 L53,9 L61,13 L67,18 L65,19 L54,12 L38,9 L30,7 L22,6 L21,5 L9,4 L9,2 L0,2 Z " fill="#D06A50" transform="translate(746,631)"/>
<path d="M0,0 L2,0 L1,3 L-8,10 L-16,19 L-22,24 L-25,31 L-29,33 L-35,35 L-29,27 L-15,13 L-7,6 Z " fill="#B44A36" transform="translate(347,285)"/>
<path d="M0,0 L16,8 L31,18 L40,25 L42,28 L37,27 L36,24 L29,22 L21,15 L6,5 L0,2 Z " fill="#BB503B" transform="translate(638,261)"/>
<path d="M0,0 L2,3 L9,15 L18,25 L26,32 L40,39 L52,43 L52,44 L43,43 L31,38 L27,36 L27,34 L22,32 L15,26 L6,15 L0,4 Z " fill="#CD6D53" transform="translate(327,485)"/>
<path d="M0,0 L1,3 L-2,13 L-3,17 L-3,39 L0,52 L-2,52 L-4,48 L-6,39 L-6,16 L-3,6 Z " fill="#CA6A4F" transform="translate(327,432)"/>
<path d="M0,0 L11,0 L7,2 L-32,9 L-42,12 L-42,10 L-37,9 L-37,7 L-35,6 L-23,5 L-22,4 L-12,3 L-11,2 Z " fill="#290603" transform="translate(260,631)"/>
<path d="M0,0 L4,2 L7,10 L7,31 L5,36 L3,36 L1,43 L-3,47 L-8,49 L-11,48 L-5,44 L1,37 L5,26 L5,11 Z " fill="#C9684E" transform="translate(538,517)"/>
<path d="M0,0 L22,0 L28,5 L30,9 L30,15 L26,21 L23,21 L27,16 L27,8 L24,4 L15,3 L-1,3 L-6,4 L-6,2 Z " fill="#DA6F53" transform="translate(378,645)"/>
<path d="M0,0 L12,0 L22,2 L23,3 L31,4 L32,5 L43,6 L44,7 L54,8 L58,11 L42,9 L11,3 L0,1 Z " fill="#380C07" transform="translate(741,629)"/>
<path d="M0,0 L23,0 L23,1 L2,2 L-3,7 L-3,15 L4,23 L16,35 L13,35 L3,26 L-5,16 L-5,6 L-4,3 L-2,3 L-2,1 Z " fill="#D06C52" transform="translate(622,646)"/>
<path d="M0,0 L1,0 L1,12 L-4,23 L-6,28 L-8,28 L-9,32 L-12,37 L-19,44 L-22,43 L-17,38 L-10,29 L-4,17 L-1,8 Z " fill="#C9684E" transform="translate(700,468)"/>
<path d="M0,0 L2,3 L-1,6 L-6,9 L-9,13 L-13,15 L-18,20 L-26,27 L-28,30 L-33,31 L-28,26 L-20,18 L-12,11 L-2,2 Z " fill="#D26D50" transform="translate(389,677)"/>
<path d="M0,0 L9,2 L26,8 L45,17 L46,20 L40,18 L29,12 L12,6 L0,1 Z " fill="#D36B50" transform="translate(592,243)"/>
<path d="M0,0 L5,0 L14,4 L19,5 L47,6 L47,7 L41,8 L22,8 L10,5 L0,1 Z " fill="#2B0703" transform="translate(360,521)"/>
<path d="M0,0 L33,0 L50,1 L60,4 L56,5 L31,2 L0,1 Z " fill="#370B05" transform="translate(502,230)"/>
<path d="M0,0 L2,0 L0,4 L-5,8 L-13,11 L-29,14 L-34,14 L-34,12 L-21,10 L-19,9 L-10,9 L-10,7 L-7,7 L-7,5 L-1,1 Z " fill="#270402" transform="translate(324,614)"/>

<path d="M0,0 L2,3 L4,13 L4,30 L2,41 L0,44 L0,36 L1,35 L2,9 L0,9 Z " fill="#2D0804" transform="translate(697,438)"/>
<path d="M0,0 L3,1 L-8,11 L-15,19 L-22,27 L-23,24 L-21,24 L-20,20 L-15,14 L-13,14 L-11,10 L-3,3 Z " fill="#D87B5D" transform="translate(352,297)"/>
<path d="M0,0 L4,2 L19,16 L31,29 L34,33 L33,35 L21,22 L14,14 L4,5 L0,2 Z " fill="#B35243" transform="translate(680,289)"/>
<path d="M0,0 L8,0 L5,2 L-25,12 L-32,14 L-32,12 L-28,12 L-28,10 L-14,5 L-5,2 Z " fill="#2D0602" transform="translate(434,239)"/>
<path d="M0,0 L20,0 L33,3 L45,8 L41,9 L29,4 L15,2 L-6,2 L-6,1 Z " fill="#310A06" transform="translate(621,392)"/>

<path d="M0,0 L2,0 L2,2 L-1,2 L-1,4 L-8,6 L-8,8 L-20,16 L-27,20 L-29,22 L-32,21 L-17,10 Z " fill="#D7795C" transform="translate(402,297)"/>
<path d="M0,0 L3,1 L9,11 L15,26 L16,31 L18,31 L18,38 L16,35 L7,14 Z " fill="#240201" transform="translate(729,344)"/>
<path d="M0,0 L2,1 L-7,11 L-12,16 L-16,21 L-19,27 L-21,27 L-19,22 L-13,13 L-4,3 Z " fill="#290703" transform="translate(350,405)"/>
<path d="M0,0 L7,0 L10,1 L10,3 L21,4 L26,7 L33,10 L33,12 L24,9 L0,1 Z " fill="#310A06" transform="translate(589,241)"/>

<path d="M0,0 L5,2 L26,23 L28,27 L27,30 L20,21 L9,9 L0,1 Z " fill="#280402" transform="translate(687,294)"/>
</svg>