<svg data-animal="penguin" viewBox="0 0 1024 1024" version="1.1" xmlns="http://www.w3.org/2000/svg" width="100%" height="100%">


<path d="M0,0 L35,0 L63,3 L94,9 L111,14 L131,21 L154,31 L171,40 L190,52 L203,62 L214,71 L226,82 L239,95 L248,106 L261,123 L274,144 L283,161 L294,188 L300,209 L304,225 L308,255 L308,296 L306,312 L303,329 L293,359 L281,382 L273,394 L263,407 L249,422 L235,435 L219,447 L198,460 L177,471 L150,482 L133,488 L101,496 L78,500 L53,503 L-11,503 L-36,501 L-72,495 L-99,488 L-125,479 L-145,470 L-168,458 L-192,442 L-205,431 L-213,424 L-227,410 L-240,393 L-250,377 L-258,362 L-265,343 L-269,331 L-274,300 L-274,252 L-269,219 L-262,194 L-254,172 L-242,147 L-230,127 L-219,112 L-210,101 L-199,89 L-184,74 L-173,65 L-156,52 L-135,39 L-112,27 L-93,19 L-82,15 L-57,8 L-31,3 L-17,1 Z M-145,150 L-160,153 L-175,159 L-188,167 L-199,176 L-206,183 L-217,199 L-225,215 L-230,228 L-236,253 L-239,271 L-240,282 L-240,317 L-237,339 L-234,354 L-228,377 L-223,389 L-218,400 L-211,408 L-200,419 L-189,428 L-174,439 L-156,450 L-139,459 L-115,469 L-91,477 L-72,482 L-45,487 L-30,489 L-6,491 L40,491 L72,488 L101,483 L134,474 L154,467 L174,458 L197,446 L215,434 L229,423 L244,409 L252,400 L261,379 L265,368 L270,346 L273,328 L274,313 L274,279 L270,251 L263,225 L254,204 L245,190 L236,179 L226,170 L212,161 L199,155 L183,151 L177,150 L151,150 L134,154 L118,161 L104,171 L91,184 L82,198 L74,215 L68,237 L65,257 L65,301 L66,314 L69,329 L80,338 L89,346 L99,359 L100,361 L100,370 L95,379 L86,390 L73,401 L58,411 L39,420 L31,423 L25,424 L7,424 L-8,419 L-24,411 L-36,403 L-46,395 L-56,386 L-65,373 L-67,368 L-66,361 L-59,351 L-51,342 L-40,333 L-35,329 L-32,314 L-31,301 L-31,256 L-34,237 L-40,216 L-45,204 L-53,190 L-62,179 L-70,171 L-83,162 L-98,155 L-112,151 L-119,150 Z " fill="#262E38" transform="translate(495,260)"/>
<path d="M0,0 L35,0 L63,3 L94,9 L111,14 L131,21 L154,31 L171,40 L190,52 L203,62 L214,71 L226,82 L239,95 L248,106 L261,123 L274,144 L283,161 L294,188 L300,209 L304,225 L308,255 L308,296 L306,312 L303,329 L293,359 L281,382 L273,394 L263,407 L249,422 L235,435 L219,447 L198,460 L177,471 L150,482 L133,488 L101,496 L78,500 L53,503 L-11,503 L-36,501 L-72,495 L-99,488 L-125,479 L-145,470 L-168,458 L-192,442 L-205,431 L-213,424 L-227,410 L-240,393 L-250,377 L-258,362 L-265,343 L-269,331 L-274,300 L-274,252 L-269,219 L-262,194 L-254,172 L-242,147 L-230,127 L-219,112 L-210,101 L-199,89 L-184,74 L-173,65 L-156,52 L-135,39 L-112,27 L-93,19 L-82,15 L-57,8 L-31,3 L-17,1 Z M-6,13 L-31,16 L-53,20 L-77,27 L-99,35 L-120,45 L-139,56 L-155,67 L-169,78 L-179,87 L-187,94 L-201,109 L-215,128 L-225,143 L-233,157 L-244,181 L-249,195 L-254,212 L-259,237 L-261,254 L-261,302 L-256,329 L-251,344 L-241,367 L-229,386 L-222,395 L-220,396 L-216,403 L-200,419 L-189,428 L-174,439 L-156,450 L-139,459 L-115,469 L-91,477 L-72,482 L-45,487 L-30,489 L-6,491 L40,491 L72,488 L101,483 L134,474 L154,467 L174,458 L197,446 L215,434 L229,423 L244,409 L252,400 L255,394 L255,391 L260,390 L272,372 L280,356 L287,338 L291,324 L295,300 L295,253 L292,233 L288,215 L283,196 L275,175 L265,154 L255,137 L243,120 L234,109 L225,99 L209,83 L198,74 L185,64 L168,53 L141,39 L116,29 L103,25 L84,20 L56,15 L33,13 Z " fill="#080808" transform="translate(495,260)"/>
<path d="M0,0 L25,0 L43,5 L62,15 L75,25 L86,35 L96,48 L97,50 L97,59 L92,68 L83,79 L73,88 L57,99 L38,109 L27,113 L21,114 L3,114 L-12,109 L-28,101 L-40,93 L-50,85 L-60,76 L-69,64 L-72,57 L-71,50 L-64,40 L-55,30 L-44,21 L-34,14 L-17,5 Z " fill="#0A0704" transform="translate(499,571)"/>
<path d="M0,0 L15,0 L27,3 L36,7 L45,13 L54,22 L61,34 L64,43 L65,49 L65,62 L62,75 L55,89 L45,100 L32,108 L19,112 L-3,112 L-14,108 L-24,102 L-34,93 L-41,82 L-45,73 L-47,65 L-47,50 L-44,37 L-37,24 L-28,14 L-19,7 L-8,2 Z " fill="#070807" transform="translate(645,496)"/>
<path d="M0,0 L11,0 L26,4 L36,9 L46,18 L53,27 L58,38 L61,50 L61,61 L57,77 L51,89 L41,100 L30,107 L19,111 L14,112 L-5,112 L-18,108 L-28,102 L-38,93 L-44,84 L-49,72 L-51,62 L-51,49 L-48,37 L-42,25 L-33,15 L-26,9 L-12,2 Z " fill="#070807" transform="translate(365,496)"/>

<path d="M0,0 L13,0 L23,4 L29,9 L35,19 L36,24 L36,34 L32,44 L26,51 L16,56 L12,57 L1,57 L-8,53 L-16,46 L-20,39 L-21,35 L-21,20 L-18,15 L-15,7 L-9,3 Z " fill="#22272D" transform="translate(375,527)"/>
<path d="M0,0 L13,0 L22,3 L28,8 L34,17 L35,20 L35,36 L30,46 L22,53 L12,57 L1,57 L-11,51 L-18,44 L-21,37 L-21,20 L-15,9 L-8,3 Z " fill="#20262B" transform="translate(635,527)"/>





<path d="M0,0 L19,7 L37,12 L50,14 L69,14 L80,13 L77,15 L69,17 L58,17 L32,14 L28,12 L16,9 L14,8 L13,11 L17,13 L32,22 L40,26 L56,30 L68,31 L66,33 L54,33 L39,28 L22,19 L11,11 L0,2 Z " fill="#D4964B" transform="translate(452,640)"/>
<path d="M0,0 L14,0 L26,3 L41,9 L48,13 L45,14 L36,10 L36,8 L31,7 L22,4 L16,3 L-10,3 L-6,1 Z " fill="#D6A753" transform="translate(505,583)"/>

<path d="M0,0 L2,1 L-8,10 L-20,18 L-22,18 L-21,15 L-18,15 L-17,12 L-10,8 L-9,6 L-12,5 L-9,3 Z " fill="#D09548" transform="translate(570,641)"/>
<path d="M0,0 L8,1 L12,2 L12,4 L20,5 L26,6 L26,8 L34,8 L37,10 L33,11 L17,7 L0,1 Z " fill="#DAA64D" transform="translate(459,629)"/>
</svg>