<svg width="250" height="250" viewBox="0 0 250 250" fill="none" xmlns="http://www.w3.org/2000/svg">
<path d="M116 124.524C116 110.47 128.165 99.5067 142.143 100.963L224.55 109.547C232.478 110.373 238.5 117.055 238.5 125.025C238.5 133.067 232.372 139.785 224.364 140.522L141.858 148.112C127.977 149.389 116 138.463 116 124.524Z" fill="currentColor"/>
<path d="M120.76 120.274C134.535 120.001 145.285 132.097 143.399 145.748L131.891 229.05C131.094 234.817 126.162 239.114 120.341 239.114C114.442 239.114 109.478 234.703 108.785 228.845L98.9089 145.354C97.351 132.184 107.5 120.536 120.76 120.274Z" fill="currentColor"/>
<path d="M122.125 5.51834C128.648 5.51832 134.171 10.3232 135.072 16.7832L147.586 106.471C149.482 120.063 139.072 132.267 125.35 132.538C111.847 132.805 101.061 121.382 102.1 107.915L109.067 17.6089C109.593 10.7878 115.284 5.51835 122.125 5.51834Z" fill="currentColor"/>
<path d="M12 126.211C12 117.753 18.3277 110.632 26.7274 109.638L95.0607 101.547C109.929 99.787 123 111.402 123 126.374V128.506C123 143.834 109.333 155.552 94.1845 153.213L26.1425 142.706C18.005 141.449 12 134.445 12 126.211Z" fill="currentColor"/>
<rect width="69.0908" height="37.6259" rx="18.813" transform="matrix(-0.682103 -0.731256 0.714523 -0.699611 165.127 184.307)" fill="currentColor"/>
<rect width="71.2152" height="41.6372" rx="20.8186" transform="matrix(0.798895 -0.60147 0.582827 0.812597 55 146.794)" fill="currentColor"/>
<rect width="69.0901" height="37.4677" rx="18.7339" transform="matrix(-0.682386 0.730992 -0.714252 -0.699889 182.38 88.9044)" fill="currentColor"/>
<rect width="75.2802" height="37.978" rx="18.989" transform="matrix(0.679222 0.733933 -0.717276 0.696789 95.8679 64.4296)" fill="currentColor"/>
</svg>
